<?xml version="1.0" encoding="UTF-8" standalone="no"?>
<!-- Created with Inkscape (http://www.inkscape.org/) -->

<svg
   version="1.1"
   id="svg1"
   width="807.2652"
   height="799.65558"
   viewBox="0 0 807.2652 799.65558"
   xmlns="http://www.w3.org/2000/svg"
   xmlns:svg="http://www.w3.org/2000/svg">
  <defs
     id="defs1" />
  <g
     id="g1"
     transform="translate(-106,-84.266747)">
    <path
       style="fill:#ffffff;fill-opacity:1"
       d="m 516.54545,881.54545 c 3.65188,-3.65187 2.46623,-8.98525 -2.3721,-10.67045 l -1.07665,-0.375 0.91714,-63 c 0.50443,-34.65 0.93267,-64.2375 0.95165,-65.75 L 515,739 h 3.85026 3.85025 l 0.64975,9.15362 c 0.35736,5.0345 0.72754,15.947 0.82264,24.25 L 524.34579,787.5 525.04134,776 c 0.38254,-6.325 0.75474,-17.2375 0.8271,-24.25 L 526,739 h 4.41907 4.41906 l 0.34904,34.25 0.34904,34.25 -1.2681,1.57874 c -1.68784,2.10129 -1.60266,4.39872 0.21916,5.91069 1.74947,1.45194 4.30884,0.70548 5.15669,-1.50399 l 0.5986,-1.55993 -1.62128,-1.7915 L 537,808.34252 v -34.71695 -34.71695 l 6.75,0.29569 6.75,0.29569 0.21648,4 c 0.11907,2.2 0.75962,11.14208 1.42346,19.87129 l 1.20697,15.87129 -1.16911,3.09734 -1.16912,3.09733 1.49566,1.49566 1.49566,1.49566 1.68316,-1.68316 1.68316,-1.68315 -1.5546,-1.78113 -1.55459,-1.78113 -0.54772,-21.22645 -0.54772,-21.22646 13.66916,0.031 c 73.09631,0.16599 174.0733,3.77446 223.16915,7.97506 40.20182,3.43963 58.10681,5.10778 70.11119,6.53203 23.73719,2.81627 18.38907,1.04588 -11.61119,-3.84364 -75.68697,-12.33569 -123.02216,-17.16978 -214,-21.85471 l -40,-2.05981 -76,-0.52996 -76,-0.52995 -29,1.15517 c -116.22388,4.6296 -195.33566,12.87575 -264,27.5178 l -7,1.49269 5.5,-0.4171 c 3.025,-0.22941 13.6,-1.3097 23.5,-2.40065 43.63037,-4.80792 91.73935,-8.40334 149.5,-11.17286 11.825,-0.56699 50.36872,-1.30202 85.65271,-1.6334 l 64.15271,-0.6025 -0.52876,20.89684 -0.52875,20.89685 -1.46161,1.6756 c -0.80388,0.92157 -1.3035,2.49657 -1.11026,3.5 l 0.35135,1.8244 h 1.98631 1.9863 l -0.34486,-8.5 c -0.18967,-4.675 0.13347,-12.1 0.7181,-16.5 0.58464,-4.4 1.34072,-11.4875 1.68018,-15.75 L 474.17064,739 H 481.08532 488 v 34.09227 34.09227 l -1.94412,2.47155 c -1.06927,1.35936 -1.70948,3.08304 -1.42268,3.83041 1.12844,2.94069 5.65739,2.80458 6.81217,-0.20472 l 0.6,-1.56359 -1.58593,-2.42044 -1.58594,-2.42045 0.71531,-33.93865 L 490.30413,739 h 3.72219 3.7222 l 0.95523,23.75 0.95524,23.75 0.1705,-23.75 L 500,739 h 4.83682 4.83682 l 0.64674,65.75 0.64674,65.75 -2.48356,1.83341 -2.48356,1.8334 v 2.72547 c 0,4.03572 2.64941,6.77611 6.79545,7.02877 0.7125,0.0434 2.4,-1.0256 3.75,-2.3756 z M 149,731.93985 c 13.475,-12.89271 31.12309,-29.67984 39.21798,-37.30472 l 14.71799,-13.86344 -0.21799,-2.09018 -0.21798,-2.09019 2.67226,-1.31296 2.67226,-1.31297 0.7114,-6.64295 c 0.39127,-3.65363 0.4929,-14.21141 0.22586,-23.46175 l -0.48555,-16.8188 1.60189,-1.44815 c 1.81094,-1.63715 5.61167,-2.69528 33.10188,-9.21566 l 19.5,-4.62519 3.8747,-2.27944 3.8747,-2.27944 -7.80459,-0.73135 c -4.29253,-0.40224 -11.43614,-0.47939 -15.8747,-0.17144 l -8.07011,0.55991 2,-0.89925 c 3.32568,-1.4953 28.21351,-5.95745 32.75654,-5.87293 l 4.24346,0.0789 -2.59309,0.95209 -2.5931,0.95208 -0.6649,20.21897 L 270.984,642.5 269.15657,645 c -3.32525,4.54908 -21.54153,20.04325 -28.43963,24.18981 -8.51391,5.11785 -8.0633,5.57322 2.42998,2.45564 8.23267,-2.44595 11.83849,-3.32918 31.10308,-7.61853 5.3625,-1.19398 9.75323,-2.47599 9.75717,-2.8489 0.004,-0.37291 2.14145,-0.78037 4.75,-0.90546 2.60856,-0.12509 11.39452,-1.57624 19.52436,-3.22479 8.12984,-1.64854 23.20484,-4.17755 33.5,-5.62003 l 18.71847,-2.62268 5.26163,-2.48066 c 2.8939,-1.36436 6.78064,-3.91325 8.6372,-5.66421 l 3.37556,-3.18357 1.28781,-3.98831 1.28782,-3.98831 0.38068,-37.19266 0.38069,-37.19267 -3.10718,-2.80733 c -1.70894,-1.54404 -5.8965,-4.53404 -9.30569,-6.64445 l -6.19852,-3.83711 -29,0.64902 -29,0.64903 -8.14588,3.84204 -8.14587,3.84204 -7.47648,7.10192 -7.47647,7.10192 -0.72507,15.99952 -0.72506,15.99953 -2.52575,0.63392 c -1.38916,0.34865 -7.08282,0.34683 -12.65258,-0.004 L 246.5,597.00269 l -15.95707,0.97799 -15.95706,0.97799 -2.29294,-1.50239 L 210,595.95389 v -10.93163 -10.93163 l 3.25,-0.49225 c 1.7875,-0.27074 11.87178,-0.74095 22.40951,-1.04492 l 19.1595,-0.55267 6.8405,-6.24658 c 3.76227,-3.43562 8.64049,-8.10437 10.84049,-10.37501 2.2,-2.27064 6.25,-5.82888 9,-7.90721 l 5,-3.77878 -61.91484,0.6534 C 190.53199,544.70597 149.91949,545 134.33516,545 H 106 v 0.83397 c 0,0.76827 39.4821,16.67189 60.5,24.36976 l 9,3.29627 v 13.95524 13.95524 l -3.5,0.71525 c -1.925,0.3934 -14.75,1.89851 -28.5,3.34471 -13.75,1.44619 -26.575,2.93085 -28.5,3.29924 l -3.5,0.6698 13.5,0.66213 c 7.425,0.36417 29.025,0.76199 48,0.88405 l 34.5,0.22193 -13.5,2.81774 c -13.61914,2.84261 -22.40402,5.25594 -24.80623,6.81465 l -1.30623,0.84756 3.71176,3.71176 3.71177,3.71177 -0.68836,23.09089 -0.68836,23.0909 -3.32758,6.60357 c -8.40522,16.68012 -47.932,74.14904 -55.07879,80.08035 -0.84039,0.69746 -1.52798,1.76014 -1.52798,2.3615 0,0.60137 2.3625,-1.16797 5.25,-3.93187 2.8875,-2.7639 16.275,-15.57385 29.75,-28.46656 z M 305.61299,624.25 c 0.48786,-5.3625 0.88262,-14.23075 0.87727,-19.70722 l -0.01,-9.95721 -2.49025,-0.64922 -2.49026,-0.64921 2.75,-0.75198 2.75,-0.75198 v -4.7449 c 0,-2.60969 0.28593,-7.48053 0.6354,-10.82408 l 0.6354,-6.07917 7.1146,-1.22401 c 3.91303,-0.67321 12.27308,-1.19167 18.57789,-1.15213 l 11.46328,0.0719 2.87965,-1.48912 c 3.32202,-1.71789 5.08915,-0.83514 2.34501,1.17143 l -1.84563,1.34955 -1.6528,-0.60088 -1.6528,-0.60088 1.76205,2.01162 1.76205,2.01162 -0.26205,26.07592 c -0.14413,14.34176 -0.5808,26.39408 -0.97038,26.78295 -0.38959,0.38886 -7.81459,2.17157 -16.5,3.96157 -8.68542,1.78999 -17.59167,3.75623 -19.79167,4.36942 -2.2,0.61318 -4.62415,1.11739 -5.38701,1.12045 L 304.72598,634 Z M 898.82291,754.51041 C 871.29714,723.54004 864.35019,714.8287 846.3202,688.67306 l -10.22073,-14.82694 -0.53425,-4.17306 c -0.29384,-2.29518 -0.76548,-12.45595 -1.04808,-22.57947 l -0.51383,-18.40641 3.99825,-3.80344 3.99824,-3.80344 -6.2499,-1.90818 C 832.31246,618.12263 825,616.47215 819.5,615.5044 814,614.53665 806.575,612.90109 803,611.86982 l -6.5,-1.87503 27.19295,0.56119 c 25.20026,0.52007 74.86374,-0.33262 73.92708,-1.26928 -0.2252,-0.2252 -9.11934,-1.28857 -19.76474,-2.36304 -20.82278,-2.1017 -41.96753,-4.69208 -45.60529,-5.58697 l -2.25,-0.55351 -0.0796,-7.14159 c -0.0438,-3.92787 -0.15629,-9.94927 -0.25,-13.38089 l -0.1704,-6.23929 1.5,-0.60604 c 0.825,-0.33332 5.775,-1.66666 11,-2.96298 9.91218,-2.45921 15.83636,-4.42667 50.3826,-16.7324 l 20.88259,-7.43861 -7.88259,-0.61886 c -4.33543,-0.34037 -45.81782,-0.92013 -92.18308,-1.28834 l -84.30048,-0.66948 3.30048,5.31161 c 1.81526,2.92139 6.57945,9.06283 10.58708,13.64765 l 7.2866,8.33604 2.2134,0.0248 c 1.21737,0.0136 9.95048,0.43419 19.40691,0.93458 l 17.1935,0.90979 1.96231,1.0502 1.96231,1.0502 0.38881,10.26522 c 0.21385,5.64587 0.20808,10.82772 -0.0128,11.51522 l -0.40162,1.25 -23.14301,-0.005 -23.14301,-0.005 -3.37866,-7.24476 C 741.26307,586.76014 737.51167,578.55 734.78488,572.5 c -2.72678,-6.05 -6.92209,-15.1625 -9.3229,-20.25 L 721.09687,543 h -23.90886 c -13.14988,0 -26.04062,-0.29219 -28.64609,-0.64931 l -4.73723,-0.64931 3.98268,5.26202 3.98267,5.26202 -1.41394,6.13729 C 669.57844,561.73822 666.95186,571.025 664.51926,579 659.44044,595.65033 648,638.62926 648,641.05881 c 0,0.89717 -0.7875,2.33832 -1.75,3.20255 l -1.75,1.57134 -2.85512,-2.28773 -2.85511,-2.28773 1.15318,-25.37862 c 1.16529,-25.64501 1.40781,-57.63289 0.46542,-61.38768 l -0.51226,-2.04101 2.3376,-3.47496 c 1.28568,-1.91124 3.89656,-4.24086 5.80195,-5.17694 l 3.46434,-1.70197 -8.59101,-0.048 c -4.72505,-0.0264 -15.41255,-0.34329 -23.75,-0.70416 L 604,540.68774 v 1.30547 c 0,1.32287 -16.61321,29.70898 -24.73868,42.26968 l -4.42972,6.84764 -1.11842,-0.3728 c -1.02534,-0.34178 -4.31867,-5.92491 -22.70281,-38.48773 l -6.35146,-11.25 -26.07946,0.004 -26.07945,0.004 3,1.84253 c 1.65,1.0134 4.9125,3.92666 7.25,6.47392 l 4.25,4.63138 v 26.8109 26.81091 l -1.8922,3.71144 L 503.2156,615 h 1.2672 1.2672 l 0.625,3.125 c 0.34375,1.71875 0.625,8.18258 0.625,14.36408 v 11.23907 l 4.63957,0.63593 C 514.19134,644.71383 522.83503,645 530.84778,645 h 14.56864 l -4.22579,-4.30576 -4.22579,-4.30577 0.26758,-25.41905 0.26758,-25.41906 8.37341,14.47482 c 4.60537,7.96115 10.75077,18.52482 13.65645,23.47482 2.90568,4.95 6.61397,11.67557 8.24065,14.94571 l 2.95759,5.94571 13.24687,-19.92965 c 7.28577,-10.96131 16.00945,-23.73449 19.38595,-28.38484 l 6.13908,-8.45519 0.79504,23.31152 0.79504,23.31152 -2.29504,3.43356 c -1.26227,1.88846 -4.00377,4.46893 -6.09223,5.73438 l -3.79719,2.30083 5.39873,0.63451 c 2.96929,0.34898 12.10303,1.10021 20.29719,1.66939 16.79751,1.16679 56.34851,5.45591 64.41272,6.98525 7.03551,1.33426 7.06515,0.94872 0.25091,-3.26307 -3.17084,-1.95985 -6.82921,-4.69939 -8.12971,-6.08787 l -2.36453,-2.5245 1.68274,-7.56363 L 682.13642,628 h 6.4734 c 7.69969,0 32.03908,2.72565 34.9014,3.90844 l 2.01122,0.83109 2.23878,6.95118 C 728.99255,643.51386 730,647.54446 730,648.6476 v 2.00571 l -6.02874,4.36751 -6.02874,4.36751 1.27874,0.66141 c 0.70331,0.36377 5.10374,1.18099 9.77874,1.81604 9.97282,1.35469 48.28456,9.32298 55.45334,11.5335 5.77494,1.78072 6.7875,1.45986 3.07319,-0.97385 C 779.30919,667.04122 767.4659,650.68974 762.59237,638 c -1.58422,-4.125 -4.23828,-10.425 -5.8979,-14 -1.65963,-3.575 -2.94215,-6.84554 -2.85003,-7.26787 0.0921,-0.42232 -0.48725,-2.33482 -1.28746,-4.25 L 751.10205,609 l 1.19898,0.003 c 10.62459,0.0303 31.10211,3.22183 32.2139,5.02073 l 0.59937,0.9698 -2.80715,-1.07304 C 780.76322,613.33073 775.45,612.65201 770.5,612.41265 l -9,-0.43521 9.5,2.87668 c 5.225,1.58218 12.875,4.10298 17,5.60179 4.125,1.4988 8.49911,2.95927 9.72024,3.24548 l 2.22024,0.52039 -0.61191,10.69476 -0.61191,10.69477 3.14167,10.56799 c 1.72792,5.8124 3.14592,11.86235 3.1511,13.44435 l 0.009,2.87635 7.74056,7.57298 c 4.25732,4.16514 9.31557,8.83817 11.24057,10.38451 1.925,1.54635 11.15,10.13287 20.5,19.08118 9.35,8.9483 23.8019,22.05027 32.11534,29.11548 8.31344,7.06522 18.66344,15.86982 23,19.56579 4.33656,3.69597 8.02997,6.73347 8.20757,6.75 0.17761,0.0165 -3.87239,-4.69026 -9,-10.45953 z M 826.25,682.33772 C 824.86732,681.7798 824.53147,680 825.80887,680 c 0.44488,0 1.68238,0.66069 2.75,1.4682 l 1.94113,1.46819 -1.5,-0.0471 c -0.825,-0.0259 -2.0625,-0.27412 -2.75,-0.55153 z M 667.9311,635.95 c -0.0379,-0.2475 -0.2322,-1.6875 -0.43178,-3.2 L 667.13644,630 h 1.99917 1.99917 l -0.67979,2.25 c -0.64333,2.12936 -2.37556,4.66878 -2.52389,3.7 z m -159.92414,-18.34195 0.007,-1.10805 4.56243,-0.20816 4.56243,-0.20816 -0.4041,1.20816 -0.40411,1.20816 -4.16528,0.10805 L 508,618.71611 Z m 240.5405,-14.14871 c -0.86554,-2.07153 -1.44646,-3.89368 -1.29092,-4.04922 0.45939,-0.45939 26.23065,4.45808 28.846,5.50417 l 2.39746,0.95894 -11.125,0.0634 c -6.11875,0.0349 -12.50399,0.33919 -14.18941,0.67627 l -3.06442,0.61289 z m -51.38958,-3.20563 -9.34212,-0.3312 0.71261,-1.71125 c 0.39193,-0.9412 2.9557,-8.01126 5.69726,-15.71126 l 4.98466,-14 -0.96622,-3.75 -0.96621,-3.75 h 0.84202 c 0.46311,0 1.08332,1.2375 1.37826,2.75 1.05559,5.41343 3.81141,12.9192 8.6181,23.47233 2.68607,5.89728 4.88376,11.40978 4.88376,12.25 V 601 l -3.25,-0.20754 c -1.7875,-0.11415 -7.45395,-0.35659 -12.59212,-0.53875 z M 570.98469,749.25 C 570.97627,747.7375 570.53316,745.825 570,745 l -0.96937,-1.5 -0.0153,4.25 L 569,752 h 1 c 0.55,0 0.99311,-1.2375 0.98469,-2.75 z M 193,726.12066 c 5.225,-1.61176 14,-4.57907 19.5,-6.59401 21.41304,-7.84473 26.08561,-9.12289 38.5,-10.53158 13.67731,-1.55199 26.4141,-4.05244 33.3096,-6.53924 3.74528,-1.35071 7.68278,-2.45583 8.75,-2.45583 1.06722,0 1.9404,-0.40223 1.9404,-0.89384 0,-0.49161 -4.1625,-1.25632 -9.25,-1.69935 l -9.25,-0.80552 9.5,-1.21507 c 5.225,-0.66829 9.725,-1.28327 10,-1.36662 0.275,-0.0834 -3.1,-1.2912 -7.5,-2.68411 l -8,-2.53255 -13.5,-0.15147 -13.5,-0.15147 -15.68644,5.20722 c -16.26177,5.3982 -39.00342,14.17831 -43.64753,16.85147 -3.0222,1.73958 -3.42692,1.8431 11.33397,-2.89928 15.08129,-4.84533 37.5493,-9.03658 53.5,-9.98006 l 8.5,-0.50277 -3.06381,1.3386 c -1.68509,0.73623 -8.17423,2.30305 -14.42032,3.48182 -16.25923,3.06847 -25.31662,6.17856 -44.01587,15.11399 -29.88189,14.27904 -29.72119,14.16767 -13,9.00967 z m 649.91667,3.48429 c -0.38661,-0.36654 -4.85405,-2.42054 -34.41667,-15.82379 -15.57428,-7.06115 -20.41635,-8.5964 -34,-10.78018 -6.6,-1.06105 -13.8,-2.62782 -16,-3.48171 l -4,-1.55253 12,0.46652 12,0.46653 17.5,3.60252 c 9.625,1.98139 21.1,4.86782 25.5,6.4143 12.35884,4.34378 12.44424,4.35645 5,0.74153 -3.85,-1.86956 -11.725,-5.05081 -17.5,-7.06945 -5.775,-2.01864 -16.10019,-5.69743 -22.94487,-8.17508 l -12.44488,-4.50483 -10.77743,-1.05694 -10.77744,-1.05695 -9.27769,1.59742 c -10.53004,1.81305 -17.1932,3.52551 -16.48261,4.2361 0.26544,0.26545 4.02014,1.07779 8.34377,1.8052 l 7.86115,1.32258 -4.5,0.24022 c -12.10986,0.64645 -12.19428,1.5438 -0.5,5.31494 14.73263,4.75093 23.62728,6.53749 35.5,7.13046 6.88548,0.34389 20.73171,3.9195 31.81967,8.21701 14.47172,5.60901 39.78498,13.54653 38.097,11.94613 z M 793,721 v -1 l -5.75,0.163 -5.75,0.16299 L 787,721 c 3.025,0.3707 5.6125,0.74736 5.75,0.837 0.1375,0.0897 0.25,-0.287 0.25,-0.837 z m -552.23209,-0.71453 c -1.50265,-0.22817 -4.20265,-0.23276 -6,-0.0102 l -3.26791,0.40466 6,0.0102 c 3.3,0.006 4.77056,-0.17648 3.26791,-0.40466 z M 696,707.61447 V 697.22895 L 710,684 c 7.7,-7.27592 14,-13.56314 14,-13.9716 0,-0.40846 -5.0625,-1.17464 -11.25,-1.70262 l -11.25,-0.95997 -6.55165,6.9987 -6.55165,6.9987 -1.11582,-0.68961 c -0.6137,-0.37929 -3.62314,-4.02107 -6.68765,-8.09285 l -5.57183,-7.40323 -11.2607,-0.36779 c -6.19339,-0.20228 -11.42068,-0.26974 -11.61621,-0.14992 -0.49849,0.3055 7.1959,10.11369 16.74109,21.34019 l 8.07725,9.5 0.0186,10.20469 0.0186,10.20468 3.25,0.54395 c 1.7875,0.29917 5.5,0.68844 8.25,0.86506 2.75,0.17662 5.5625,0.40224 6.25,0.50137 L 696,718 Z M 339.875,716.375 343,715.75 v -18.28168 -18.28167 l 9.5,-0.71224 9.5,-0.71225 V 670.88108 664 l -3.25,0.0208 c -1.7875,0.0114 -11.125,0.68993 -20.75,1.50772 -9.625,0.8178 -21.89608,1.77694 -27.26907,2.13141 l -9.76908,0.64451 0.43368,1.59777 c 0.23853,0.87878 1.01787,4.00197 1.73187,6.94042 l 1.29818,5.34264 9.78721,-0.70051 L 324,680.78426 V 698.89213 717 h 6.375 c 3.50625,0 7.78125,-0.28125 9.5,-0.625 z m 311.56002,-6.59058 c -2.16426,-2.29837 -8.55576,-8.92761 -14.20333,-14.73164 L 626.96339,684.5 l 4.7683,-4.35368 c 2.62257,-2.39452 8.0446,-6.96972 12.04895,-10.16712 l 7.28065,-5.81345 -6.7107,-0.71865 -6.7107,-0.71866 -3.14094,1.13578 C 632.77143,664.4889 630.22706,665 628.84478,665 h -2.51321 l -5.91579,4.14114 c -3.25368,2.27762 -7.76213,5.65262 -10.01877,7.5 C 604.88121,681.15658 605,681.29175 605,670.5 V 661 h -2.85331 c -1.56932,0 -5.61932,-0.28911 -9,-0.64246 L 587,659.71509 V 685.23254 710.75 l 3.125,0.625 c 1.71875,0.34375 5.76875,0.625 9,0.625 H 605 v -7.08971 -7.0897 l 2.25,-1.87703 c 3.64183,-3.03813 4.80178,-2.42237 14.25,7.5647 l 9,9.5133 12,0.77163 c 6.6,0.42439 12.19576,0.63628 12.43502,0.47086 0.23927,-0.16542 -1.33573,-2.18125 -3.5,-4.47963 z M 382.36043,713.36408 387,712.72815 V 702.86408 693 l 5.25,-0.009 c 2.8875,-0.005 7.6125,-0.29246 10.5,-0.63929 l 5.25,-0.6306 0.011,6.38929 c 0.006,3.51411 0.28993,8.07679 0.63084,10.13929 l 0.61983,3.75 h 5.74416 c 3.15929,0 7.15041,-0.28125 8.86916,-0.625 L 427,710.75 v -25.5004 -25.5004 l -8.4867,0.44543 c -10.3058,0.54092 -9.61301,-0.14391 -10.25439,10.13657 l -0.52721,8.45066 -3.61585,0.59806 c -1.98872,0.32894 -6.60093,0.60302 -10.24935,0.60907 l -6.63351,0.011 -0.67798,-6.33092 c -0.37289,-3.48201 -0.35966,-7.59922 0.0294,-9.14936 l 0.70738,-2.81843 -8.85298,0.71832 c -4.86914,0.39508 -9.20979,0.93885 -9.6459,1.20838 C 368.35681,663.89751 368,675.34148 368,689.05902 V 714 h 4.86043 c 2.67323,0 6.94823,-0.28617 9.5,-0.63592 z M 475.157,710 H 490 v -7.14277 -7.14277 l -17.5,0.71521 -17.5,0.71521 v -2.92784 -2.92783 l 6.75,-0.6375 c 3.7125,-0.35062 10.93397,-0.64069 16.04772,-0.6446 L 487.09543,690 486.79772,683.75 486.5,677.5 477,677.76928 c -5.225,0.1481 -12.3125,0.52142 -15.75,0.82959 l -6.25,0.56032 v -2.92985 -2.92985 l 9.15362,-0.64975 c 5.0345,-0.35736 12.6845,-0.64974 17,-0.64974 H 489 v -6.98668 -6.98668 l -20.25,0.52588 c -11.1375,0.28923 -23.0625,0.76905 -26.5,1.06627 l -6.25,0.5404 v 25.57408 25.57408 l 12.157,-0.65367 C 454.84335,710.29415 466.99335,710 475.157,710 Z m 93.05167,-0.91895 c 7.74461,-2.40615 11.62929,-9.00748 10.34407,-17.57795 l -0.64669,-4.31243 -2.33761,-2.52232 -2.3376,-2.52232 -5.36542,-1.59848 c -2.95098,-0.87917 -10.74613,-2.04024 -17.32256,-2.58016 l -11.95713,-0.98166 -1.04287,-1.06019 -1.04286,-1.06018 2,-1.51398 2,-1.51398 9.5,0.52071 c 5.225,0.28639 13.00815,1.14659 17.29589,1.91156 8.93872,1.59474 8.4372,1.89471 8.83414,-5.28398 l 0.30332,-5.48569 -5.41384,-1.80607 c -2.97761,-0.99333 -10.07399,-2.2155 -15.76973,-2.71591 l -10.35591,-0.90986 -6.81308,0.85549 c -8.31508,1.04407 -13.1187,3.21656 -17.0747,7.7222 L 518,670.06959 v 4.81732 4.81732 l 2.26532,3.36151 2.26532,3.3615 5.85964,1.78394 c 3.22281,0.98117 11.0771,2.26947 17.45399,2.8629 C 558.4199,692.24436 559,692.39912 559,694.58377 v 1.46573 l -2.75,1.07781 -2.75,1.07781 -8.01595,-0.53736 c -4.40878,-0.29555 -11.38378,-1.26248 -15.5,-2.14873 -4.11623,-0.88624 -8.49655,-1.82416 -9.73405,-2.08424 L 518,692.9619 v 6.9805 6.98051 l 3.98212,1.07227 c 8.08657,2.17749 15.84935,2.86051 29.01788,2.55318 l 13.5,-0.31507 z M 403.75,646.907 425,645.64715 l -0.0354,-7.57358 -0.0354,-7.57357 -1.34954,-2.43646 -1.34953,-2.43645 1.52337,-1.52338 1.52338,-1.52338 9.32471,-0.40783 c 5.12859,-0.22431 10.41649,-0.13381 11.75089,0.2011 3.13755,0.78748 13.95212,8.91604 15.98011,12.01114 l 1.56692,2.39141 -3.81446,4.1318 -3.81446,4.1318 20.50342,-0.26987 20.50343,-0.26988 -0.2018,-9.97358 -0.2018,-9.97359 -1.1722,-1.41242 c -2.25111,-2.71242 -17.01622,-10.97473 -25.54845,-14.29649 l -2.65312,-1.03291 6,-1.90814 c 8.46721,-2.69278 15.32679,-6.76921 18.91775,-11.24222 l 3.08225,-3.83935 0.32087,-16.06021 c 0.17648,-8.83312 0.0605,-17.09767 -0.25776,-18.36566 l -0.57863,-2.30545 -6.24224,-4.41712 c -3.43323,-2.42942 -8.43694,-5.37466 -11.11936,-6.54499 L 472.74576,541 H 424.6771 376.60844 l 4.44578,2.87027 c 2.44518,1.57865 5.90828,4.33204 7.69578,6.11866 l 3.25,3.24838 0.062,28.63135 c 0.0868,40.06773 -0.0172,48.03237 -0.69006,52.84842 l -0.58917,4.21709 -1.9703,0.62535 c -1.08366,0.34394 -4.07229,2.66924 -6.64139,5.16733 l -4.67109,4.54198 2.5,-0.55098 c 1.375,-0.30304 12.0625,-1.11792 23.75,-1.81085 z M 425,583.38801 v -13.45078 l -1.5,-0.5756 c -3.87891,-1.48848 -0.12842,-1.83949 16.74875,-1.56749 l 18.25125,0.29413 1.29247,1.70507 1.29247,1.70508 -0.29247,5.39897 -0.29247,5.39897 -2.5,1.84628 c -2.42749,1.79274 -22.76274,9.8695 -29.60675,11.75922 L 425,596.83879 Z m -11.97104,-17.34895 c -2.64601,-1.67339 -0.4131,-2.10514 3.06972,-0.59355 l 3.40132,1.47621 -2.5,0.0238 c -1.375,0.0131 -3.16197,-0.39482 -3.97104,-0.90649 z m 294.57582,-39.06913 c 20.69933,-1.65345 39.54695,-5.50489 48.24748,-9.85918 2.00626,-1.00405 5.29962,-2.08065 7.31857,-2.39243 l 3.67084,-0.56688 4.27986,-4.15347 c 6.4772,-6.28591 8.68651,-9.75632 9.8844,-15.52656 l 1.09101,-5.25533 -1.9745,-5.84867 c -1.08598,-3.21678 -1.81105,-6.01213 -1.61128,-6.2119 0.19977,-0.19978 6.57899,1.88228 14.17603,4.6268 7.59705,2.74452 18.34904,6.46195 23.89332,8.26096 l 10.08052,3.27092 0.91948,2.08707 c 0.50572,1.14788 1.78975,2.25112 2.85339,2.45164 l 1.93391,0.36458 1.27735,-1.74688 1.27735,-1.74688 -0.97517,-1.82211 -0.97516,-1.8221 -4.73609,0.14903 -4.73609,0.14903 -18.5,-7.09913 c -10.175,-3.90453 -20.975,-8.11939 -24,-9.36636 l -5.5,-2.26722 -4.68339,-7.2613 -4.68339,-7.2613 1.18339,-0.44706 1.18339,-0.44706 -2.09685,-0.86407 c -1.15326,-0.47524 -6.92635,-5.42271 -12.82909,-10.99437 l -10.73225,-10.13031 11.32909,2.33863 c 16.49957,3.40594 16.42827,2.7813 -0.1709,-1.4971 l -14.5,-3.73735 -8.53414,-6.45026 c -4.69377,-3.54764 -10.65627,-7.69391 -13.25,-9.21394 -5.69651,-3.33838 -5.85782,-3.86691 -0.96586,-3.16476 34.64148,4.97213 64.87994,8.96222 86.67653,11.43731 l 26.92653,3.05762 1.74907,1.58289 c 0.96198,0.87058 2.57004,1.42477 3.57347,1.23153 L 837.5,430.47261 V 427.9863 425.5 l -3,0.28035 c -6.35334,0.59373 -11.71318,0.06 -33,-3.2864 -12.1,-1.90216 -27.85,-4.14441 -35,-4.98277 -7.15,-0.83836 -23.125,-2.92809 -35.5,-4.64383 l -22.5,-3.11953 -8.45747,-5.12391 -8.45747,-5.12391 3.3981,-0.32758 c 1.86895,-0.18016 13.32481,0.16047 25.45747,0.75697 12.13265,0.5965 26.78437,1.27759 32.55937,1.51355 l 10.5,0.429 -6,-0.90511 c -3.3,-0.49781 -8.475,-0.90337 -11.5,-0.90125 -3.025,0.002 -10.9,-0.47889 -17.5,-1.06892 -6.6,-0.59003 -18.70104,-1.4792 -26.8912,-1.97593 L 686.71759,396.11759 685.6588,395.0588 684.6,394 l 3.45,-0.0838 3.45,-0.0838 -5.5,-1.26179 c -3.025,-0.69398 -6.85,-1.86753 -8.5,-2.60788 l -3,-1.34609 13.5,-0.73782 c 7.425,-0.4058 32.72211,-1.23297 56.21579,-1.83815 l 42.7158,-1.10032 1.953,1.21967 1.95301,1.21967 1.52176,-1.26295 1.52176,-1.26295 -0.54755,-1.42688 c -0.53955,-1.40606 -4.43884,-1.98829 -5.59213,-0.835 -0.77586,0.77587 -4.08732,0.80126 -65.24144,0.50035 l -52,-0.25588 10.5,-1.92519 c 10.32723,-1.89353 25.22968,-4.02711 40,-5.7268 l 7.5,-0.86306 -33.5,0.32008 -33.5,0.32007 15,-2.92169 c 8.25,-1.60693 23.55,-4.06062 34,-5.45264 40.75318,-5.42865 96.26747,-13.49846 104.12872,-15.13664 l 3.12872,-0.65198 0.6803,1.10075 c 1.02714,1.66195 4.26433,1.31952 4.97252,-0.52601 l 0.62425,-1.62675 -1.11784,-1.34691 -1.11785,-1.34692 -3.08661,1.59615 -3.08662,1.59616 -27.5628,2.83187 c -30.57529,3.14139 -63.5809,7.14488 -102.02165,12.37495 -14.00238,1.90509 -25.65428,3.26839 -25.89313,3.02954 -0.47036,-0.47036 -0.12704,-0.60491 7.35199,-2.88122 l 5,-1.5218 -5.5,0.57391 c -8.12804,0.84814 -5.78093,-0.22552 4.5,-2.05849 10.11955,-1.80419 59.6156,-13.81148 59.09192,-14.33515 -0.18594,-0.18595 -9.73269,1.2198 -21.215,3.12388 -22.08014,3.66149 -32.39049,5.17377 -41.37692,6.06903 l -5.5,0.54792 5.5,-1.93356 c 3.025,-1.06346 6.625,-1.99496 8,-2.07 1.375,-0.075 3.4,-0.54419 4.5,-1.04256 l 2,-0.90612 -3.5,0.44997 c -1.925,0.24749 -8.225,0.67004 -14,0.939 l -10.5,0.48902 2.5,-1.03817 c 1.375,-0.57099 17.125,-4.60314 35,-8.96032 17.875,-4.35719 40.37812,-9.97603 50.00692,-12.48632 l 17.50693,-4.56414 1.58286,0.6074 1.58286,0.6074 1.24631,-1.50171 c 0.68546,-0.82593 0.956,-1.97141 0.60119,-2.54551 -0.92168,-1.49132 -4.28259,-1.29001 -5.22738,0.31311 L 758.5,325.71382 731,331.95896 c -15.125,3.43482 -32.9,7.53732 -39.5,9.11667 -15.07995,3.60856 -31.71577,7.04194 -32.12715,6.63055 -0.17223,-0.17222 7.21093,-3.40592 16.40701,-7.18599 16.18516,-6.65296 38.78974,-17.1633 34.72014,-16.14366 -5.41335,1.35632 -20.56929,5.9577 -25,7.59006 -10.64332,3.92121 -20.59294,7.03002 -22.25885,6.95488 -0.95763,-0.0432 2.53385,-1.58285 7.75885,-3.42147 11.77223,-4.14251 9.73353,-4.48726 -3.57528,-0.60459 -5.45859,1.59247 -11.49972,3.15527 -13.42472,3.47287 l -3.5,0.57746 3.5,-1.74841 c 6.71517,-3.35452 54.24536,-24.06887 62.5,-27.2384 15.92885,-6.1162 74.80063,-31.99163 74.18593,-32.60633 -0.2012,-0.2012 -6.85034,2.28606 -14.77587,5.52724 -7.92553,3.24118 -23.23491,9.5002 -34.02085,13.90894 -10.78593,4.40873 -20.91093,8.67737 -22.5,9.48585 C 715.54179,308.23213 656.37455,331 655.13501,331 c -0.53306,0 -3.13479,0.92828 -5.78161,2.06284 -2.64683,1.13456 -4.47403,1.72446 -4.06045,1.31087 2.47597,-2.47596 14.66636,-9.95902 23.49735,-14.42383 5.65967,-2.86144 10.08152,-5.4114 9.82634,-5.66658 -0.44337,-0.44337 -3.29863,0.71004 -20.94285,8.46005 -7.69066,3.37803 -11.85286,3.95197 -5.74164,0.79174 1.71491,-0.88682 6.90882,-4.05788 11.54203,-7.0468 9.51046,-6.13528 20.08923,-12.09614 39.02582,-21.99003 7.15,-3.7357 13.45,-7.23229 14,-7.77022 l 1,-0.97804 -1.05439,0.375 c -0.57991,0.20625 -10.25491,4.95167 -21.5,10.54537 -28.8438,14.34794 -54.80524,26.60466 -52.44561,24.76025 1.1,-0.85982 7.0625,-4.71394 13.25,-8.56472 6.1875,-3.85077 11.25,-7.18552 11.25,-7.41054 0,-0.22502 -6.1875,2.67154 -13.75,6.4368 -7.5625,3.76526 -14.875,7.1751 -16.25,7.57741 l -2.5,0.73148 6.42714,-4.74089 c 3.53493,-2.60749 13.43493,-9.32353 22,-14.92452 15.26534,-9.98253 30.11198,-20.56607 53.07286,-37.83341 l 11.5,-8.64837 2.21482,-0.0269 2.21481,-0.0269 1.08143,-2.02067 C 734.38879,249.40503 733.51588,248 730.53881,248 h -2.34316 l -0.98677,2.83066 -0.98678,2.83066 -12.35774,7.91934 c -6.79676,4.35564 -19.10923,12.49819 -27.36105,18.09456 C 661.95047,296.32691 633.13298,315 631.98788,315 c -1.8497,0 6.16208,-7.9439 15.26212,-15.13281 4.8125,-3.80181 8.75,-7.14092 8.75,-7.42026 0,-0.45424 -8.3774,4.91241 -19.5,12.4919 -2.2,1.4992 -4.675,3.057 -5.5,3.4618 -2.66142,1.30585 21.09512,-21.33693 34.75,-33.12084 7.2875,-6.28898 13.25,-11.6247 13.25,-11.85715 0,-1.01453 -1.42038,-0.0114 -9.71204,6.85892 -15.0448,12.46589 -34.64683,27.16304 -36.28796,27.20788 -0.275,0.008 -2.075,1.07637 -4,2.37524 l -3.5,2.36159 6.5,-6.1977 6.5,-6.1977 -3.12271,1.83456 c -1.71749,1.00902 -5.62871,3.56833 -8.69159,5.68737 -3.06289,2.11904 -6.08679,3.68017 -6.71979,3.46917 l -1.1509,-0.38363 16.87545,-16.46917 c 9.28149,-9.05804 22.03561,-21.15233 28.34249,-26.87619 6.30688,-5.72386 19.23312,-18.0535 28.72497,-27.39919 l 17.25793,-16.99218 2.63433,-0.1008 2.63433,-0.10081 1.01689,-1.61408 c 0.55929,-0.88774 0.72284,-2.38038 0.36343,-3.31697 l -0.65346,-1.70289 -2.75094,0.31697 -2.75093,0.31697 -0.50475,2.71434 -0.50475,2.71434 -16,14.67331 c -8.8,8.07033 -22.075,20.38725 -29.5,27.37094 -34.94701,32.86993 -48.38568,44.52478 -50.1104,43.45884 l -0.92581,-0.57218 1.92199,-2.6798 c 1.05709,-1.47388 4.74094,-6.05479 8.18633,-10.17979 3.44539,-4.125 5.40114,-6.79832 4.34611,-5.94072 -9.20172,7.47987 -12.32527,9.88015 -14.91822,11.4639 l -3,1.83236 5.48845,-5.92777 c 3.01864,-3.26027 12.24364,-12.86821 20.5,-21.35098 L 650.5,248.65359 633.64397,264.4115 c -14.70306,13.74521 -29.29982,25.21514 -30.54865,24.0047 -0.77039,-0.74669 9.09082,-14.65961 20.73644,-29.25652 6.43263,-8.06282 15.21088,-19.22855 19.50722,-24.81273 l 7.81152,-10.15304 2.00386,-0.52402 2.00386,-0.52403 -0.32911,-2.32293 L 654.5,218.5 h -2.48304 -2.48303 l -0.57901,3.56211 -0.579,3.56211 -6.15254,7.43789 c -10.10358,12.21436 -29.30756,36.19807 -35.65894,44.53418 -5.35041,7.02236 -9.1396,9.26354 -5.01244,2.96469 2.05517,-3.13658 1.2474,-3.33541 -1.51304,-0.37242 -2.3035,2.47252 -2.75989,1.289 -0.66175,-1.71605 3.4706,-4.97075 23.64437,-38.78427 23.3281,-39.10053 -0.19563,-0.19563 -2.99959,3.57814 -6.23103,8.38616 C 610.08931,257.25829 594.20868,278 593.31999,278 c -0.30251,0 0.26768,-1.2375 1.26708,-2.75 5.14124,-7.78082 12.61542,-20.38085 12.28541,-20.71085 -0.20705,-0.20706 -3.46184,3.37931 -7.23286,7.9697 -3.77102,4.5904 -7.98808,9.39129 -9.37126,10.66866 l -2.51487,2.32249 3.27651,-6 c 4.00406,-7.33231 10.17201,-17.19276 23.45718,-37.5 5.57713,-8.525 15.51157,-24.35074 22.07653,-35.16831 L 648.5,177.16338 651.25,176.60669 654,176.05 v -2.48982 -2.48981 l -2.06392,-1.10458 -2.06392,-1.10458 -1.44225,1.19696 -1.44224,1.19695 0.20607,2.70442 0.20607,2.70442 -10.63372,16.4929 c -15.91799,24.68882 -41.08751,61.90886 -50.50454,74.68484 -5.43832,7.37811 -7.7651,8.96653 -4.83529,3.30089 0.86556,-1.6738 1.57374,-3.50228 1.57374,-4.06329 0,-0.82762 2.12861,-5.8916 5.70796,-13.5793 0.25608,-0.55 -0.45789,0.125 -1.58659,1.5 -1.1287,1.375 -2.55895,3.70517 -3.17834,5.17814 -0.61938,1.47298 -1.76011,2.92142 -2.53495,3.21876 l -1.40881,0.54061 1.39252,-3.21875 c 0.76589,-1.77032 3.74907,-8.16876 6.62928,-14.21876 2.88022,-6.05 8.08916,-16.99514 11.57542,-24.32253 3.48627,-7.32739 5.87651,-13.16847 5.31164,-12.98018 -0.56486,0.18829 -2.08346,2.94165 -3.37466,6.11859 -1.29121,3.17694 -5.4745,11.04302 -9.29622,17.48018 -3.82172,6.43717 -8.44223,14.40394 -10.26781,17.70394 -1.82558,3.3 -4.25304,7.17722 -5.39434,8.61604 -1.14131,1.43882 -2.63637,3.46382 -3.32238,4.5 -0.686,1.03618 0.0859,-0.81604 1.71528,-4.11604 1.62941,-3.3 3.23811,-7.35 3.57489,-9 l 0.61233,-3 -2.52713,4 c -1.38992,2.2 -3.63895,6.025 -4.99784,8.5 -1.35889,2.475 -3.20281,5.4 -4.0976,6.5 l -1.62689,2 0.66682,-3.5 c 0.36676,-1.925 2.21461,-7.775 4.10634,-13 1.89173,-5.225 4.06469,-11.525 4.8288,-14 17.48292,-56.62873 18.65551,-60 20.86911,-60 1.53714,0 2.62317,-2.08937 2.62317,-5.0466 v -1.88303 L 597,170 l -2,-1.07037 -2.11845,1.13376 -2.11844,1.13376 0.55532,4.14025 0.55532,4.14026 -4.86795,13.01117 c -11.61507,31.04498 -17.92424,48.59062 -20.40069,56.73373 -1.45896,4.7974 -3.60707,10.8724 -4.77358,13.5 l -2.12092,4.77744 -0.74842,-3.34491 -0.74841,-3.34491 1.36906,-10.65509 c 1.20252,-9.35891 1.99274,-13.6262 4.01013,-21.65509 l 0.50253,-2 -1.11089,1.77403 c -0.61098,0.97571 -2.88737,8.62571 -5.05863,17 l -3.94776,15.22597 0.5152,-4.92097 c 0.60523,-5.78104 0.0849,-5.56086 -2.50045,1.05811 l -1.89942,4.86286 -0.0468,-2.75349 c -0.0257,-1.51442 1.28157,-11.63942 2.9051,-22.5 1.62353,-10.86058 3.44605,-23.76337 4.05004,-28.67286 l 1.09817,-8.92634 1.54493,-1.12968 1.54493,-1.12969 -0.34497,-2.44397 L 560.5,191.5 l -2.16411,-0.3083 -2.16411,-0.30829 -0.64129,2.02052 -0.64129,2.02052 1.0087,1.88478 1.0087,1.88477 -2.00074,9.403 c -1.10041,5.17165 -2.87239,14.128 -3.93774,19.903 -2.40485,13.03612 -4.97092,24.02475 -6.07151,26 l -0.83579,1.5 -0.16184,-5.5 -0.16183,-5.5 -0.82309,6.5 c -0.45269,3.575 -1.21528,7.85 -1.69464,9.5 l -0.87156,3 -1.36616,-2.5 -1.36616,-2.5 0.052,-15 c 0.0286,-8.25 0.44762,-28.05 0.93115,-44 0.48354,-15.95 0.88414,-29.7875 0.89024,-30.75 0.006,-0.9625 -0.43893,-1.6375 -0.98893,-1.5 -0.55,0.1375 -0.94947,1.375 -0.88771,2.75 0.61567,13.70684 -3.14599,87.62747 -4.57699,89.94288 l -0.8522,1.37889 -0.79076,-10.41088 -0.79077,-10.41089 -0.72666,4.5 c -0.39967,2.475 -0.7737,6.75 -0.8312,9.5 l -0.10453,5 -1.08834,-1.87341 -1.08834,-1.8734 0.42294,-28.1266 0.42294,-28.12659 1.35363,-2.11753 1.35363,-2.11754 -0.62643,-1.63246 c -0.78766,-2.05259 -3.56135,-2.12925 -4.33247,-0.11974 -0.31927,0.83201 -0.0539,2.14728 0.58977,2.92282 l 1.17027,1.41008 -0.65277,5.82719 c -0.35902,3.20495 -1.22461,16.17718 -1.92354,28.82718 -0.69893,12.65 -1.33147,20.6375 -1.40563,17.75 L 523,245 h -1 -1 l -0.0703,4.75 c -0.0386,2.6125 -0.45702,5.65 -0.92971,6.75 l -0.85943,2 -0.20647,-7 c -0.11355,-3.85 -0.38927,-5.875 -0.6127,-4.5 -0.22343,1.375 -0.92957,4.975 -1.56919,8 l -1.16295,5.5 -0.61804,-4 c -0.33992,-2.2 -0.41859,-25.15 -0.17482,-51 l 0.44321,-47 -1.10067,-30.36666 -1.10068,-30.366658 3.05703,-2.855697 3.05703,-2.855696 -0.66305,-2.277644 C 517.01231,84.70424 512.24047,82.742408 508.2225,85.556704 L 506,87.113408 v 2.870818 2.870818 l 2.84552,2.322478 2.84551,2.322478 -0.76338,27 c -0.41986,14.85 -0.80034,42.12153 -0.84551,60.60339 -0.0758,30.99825 -1.58131,73.72911 -2.63482,74.78262 -1.01522,1.01522 -1.5783,-1.03517 -2.20178,-8.0176 l -0.65795,-7.36841 -1.08714,6.5 -1.08713,6.5 -0.70184,-7.12299 c -0.38601,-3.91765 -1.17822,-17.17936 -1.76048,-29.47049 -1.32809,-28.03549 -2.42801,-30.19077 -1.62879,-3.19159 0.32912,11.11822 0.31756,24.82456 -0.0257,30.45854 l -0.62407,10.24359 -0.76595,-1.95853 C 496.48525,255.38134 496.10205,252.025 496.05497,249 l -0.0856,-5.5 L 495,245 c -0.53316,0.825 -0.97627,4.06094 -0.98469,7.19098 -0.008,3.13004 -0.41347,5.93706 -0.90012,6.23783 l -0.8848,0.54684 -0.61108,-6.23783 C 490.68438,243.19403 489.04821,207.77129 488.5367,186 l -0.45814,-19.5 H 486.78928 485.5 l 0.15503,2.5 c 1.94491,31.36233 2.87318,90.61804 1.45466,92.85676 l -0.85969,1.35677 -0.66063,-1.06893 c -0.36335,-0.5879 -1.31162,-5.02345 -2.10728,-9.85676 l -1.44665,-8.78784 0.55377,8.98816 c 0.30457,4.94348 0.3061,8.74048 0.003,8.43778 -0.7677,-0.7677 -6.75565,-26.28814 -10.63656,-45.33259 l -3.24147,-15.90666 1.14271,-1.82977 c 1.6575,-2.65408 1.40589,-4.64571 -0.73141,-5.78956 l -1.87414,-1.003 -1.64118,1.81349 -1.64119,1.81348 1.8681,2.40434 1.8681,2.40433 1.25776,10 c 0.69177,5.5 2.29841,15.85 3.57031,23 3.64901,20.51285 4.79389,28.50581 4.17214,29.12756 -0.31724,0.31724 -0.88183,-1.04915 -1.25465,-3.03642 -0.37282,-1.98728 -1.0714,-3.85646 -1.55242,-4.15375 l -0.87457,-0.54051 0.50016,4.80156 0.50017,4.80156 -3.36683,-9.528 c -1.85176,-5.2404 -4.21976,-13.00243 -5.26223,-17.24896 -1.04247,-4.24653 -2.26322,-7.72143 -2.71279,-7.722 -0.44956,-5.7e-4 -0.59057,0.78646 -0.31335,1.74896 0.80631,2.7995 4.36362,21.32502 5.04058,26.25 l 0.61855,4.5 -0.9371,-1.43426 -0.93709,-1.43427 -0.34647,3.43427 -0.34647,3.43426 -4.82867,-15 c -2.65576,-8.25 -6.41204,-18.825 -8.34728,-23.5 -3.90881,-9.44255 -14.67842,-38.10329 -16.83821,-44.81084 l -1.38806,-4.31084 1.21319,-1.94262 1.21318,-1.94261 -1.09357,-1.74655 c -0.60146,-0.9606 -2.25541,-1.88601 -3.67544,-2.05647 l -2.58188,-0.30993 -1.10245,2.05993 L 426.92963,174 428,176 l 1.07037,2 h 1.88536 1.88536 l 0.7033,3.25 c 0.38681,1.7875 3.5098,11.8 6.93998,22.25 14.86213,45.27731 20.17287,63.17609 19.07167,64.27729 -0.30582,0.30582 -0.56437,0.14354 -0.57455,-0.36062 C 458.97131,266.9125 456.4746,262 453.43324,256.5 c -5.72002,-10.34412 -6.4089,-9.70168 -1.38041,1.28735 4.2343,9.25343 2.20378,6.86988 -5.52542,-6.48608 C 437.80856,236.23523 431.8994,226.63612 430.95208,226 c -0.40954,-0.275 -2.62935,-4.1 -4.93291,-8.5 C 422.16424,210.13678 420,206.77488 420,208.14994 c 0,1.19817 10.24868,19.37152 11.10142,19.68547 0.50107,0.18448 0.65668,0.74698 0.34579,1.25 -0.31088,0.50302 -0.0887,0.91459 0.49377,0.91459 0.58246,0 0.969,0.3375 0.85898,0.75 -0.11002,0.4125 0.99812,3.06428 2.46254,5.89284 2.52598,4.87899 12.83918,31.35716 12.21356,31.35716 -0.16241,0 -2.19826,-3.4875 -4.52411,-7.75 -7.41803,-13.59472 -12.22291,-18.6727 -5.9955,-6.33627 3.29982,6.53691 8.17892,19.28423 7.60197,19.86118 C 443.44069,274.89265 427.90824,252.73362 394.24756,202 l -15.59175,-23.5 -0.0779,-4.38479 -0.0779,-4.38479 -1.67234,-1.06111 -1.67234,-1.06111 -2.57766,1.17446 L 370,169.95712 v 2.57247 2.57246 l 3.39958,1.42044 3.39958,1.42043 7.35042,11.68408 c 4.04273,6.42625 13.93373,21.62659 21.98,33.77854 15.9451,24.08125 29.1706,45.66211 30.38482,49.5808 l 0.7704,2.48633 -6.3924,-7.86526 c -3.51582,-4.3259 -7.4423,-9.04475 -8.72551,-10.48634 l -2.33311,-2.62107 3.71545,7 c 2.04349,3.85 4.59785,8.575 5.67634,10.5 l 1.96091,3.5 -2.34324,-2.60171 c -1.28878,-1.43094 -7.01148,-8.7346 -12.71711,-16.23035 -11.49534,-15.10199 -15.52066,-19.3504 -9.63399,-10.16794 2.11555,3.3 6.00564,9.72265 8.64465,14.27257 2.639,4.54991 6.08623,10.17491 7.66052,12.5 4.36866,6.45215 4.76109,7.44216 1.92762,4.86294 l -2.59757,-2.36449 0.55295,2.11449 0.55295,2.11449 h -1.02351 c -0.56293,0 -2.96727,-2.3625 -5.34297,-5.25 -2.3757,-2.8875 -9.5051,-11.33206 -15.84312,-18.7657 C 394.68565,248.55067 386.35,238.5385 382.5,233.73503 c -3.85,-4.80346 -7.36302,-8.73389 -7.8067,-8.7343 -0.44369,-4e-4 -0.21869,0.81058 0.5,1.80219 1.81837,2.50889 23.02435,29.68789 27.57166,35.33768 5.77287,7.17249 12.69488,16.26619 13.10335,17.21434 l 0.36832,0.85494 -2.36832,-0.70631 c -1.30257,-0.38847 -4.05581,-2.0319 -6.11831,-3.65206 -4.18343,-3.28623 -4.9375,-2.78644 -1.5,0.99417 l 2.25,2.47458 -1.83179,-0.66013 C 405.66073,278.29706 404.26107,278 403.55786,278 c -0.70321,0 -7.25395,-5.9625 -14.5572,-13.25 -13.74721,-13.71755 -13.49674,-12.68285 0.74934,3.09557 4.5375,5.02557 8.25,9.35214 8.25,9.61461 0,0.26247 -3.7125,0.19531 -8.25,-0.14924 l -8.25,-0.62646 -12,-11.50804 C 358.55604,254.68115 342.41228,240.77038 329.25723,230.5 l -5.12349,-4 -0.31687,-1.98978 -0.31687,-1.98979 -1.85622,-0.35399 c -2.4101,-0.45963 -3.87939,1.05598 -3.06957,3.16634 l 0.63977,1.66722 2.14301,0.0204 2.14301,0.0204 19.5,18.6086 c 10.725,10.23473 22.5375,21.07622 26.25,24.0922 3.7125,3.01599 6.75101,5.77042 6.75224,6.12097 0.001,0.35055 -4.37575,0.49159 -9.72662,0.31342 l -9.72887,-0.32394 -6.52338,-4.50013 -6.52337,-4.50013 5,4.5535 5,4.55351 -11.25831,0.0206 -11.2583,0.0206 -10.2417,-6.67716 C 315.10876,265.65041 307.53802,260.72253 303.91781,258.372 298.61121,254.92652 271.1579,238.41487 253,227.74773 l -3.5,-2.05613 1.5,1.53795 c 0.825,0.84587 16.8,11.76564 35.5,24.26616 18.7,12.50052 34.65893,23.35284 35.46429,24.11626 l 1.46428,1.38803 -4.46428,-0.003 c -2.45536,-0.002 -10.13351,0.71551 -17.06256,1.59374 l -12.59826,1.59677 -5.11849,-2.59373 C 278.77662,274.85311 277,274.43223 277,275.89159 c 0,0.49038 1.20085,1.19299 2.66856,1.56136 1.4677,0.36837 3.50252,1.2539 4.52182,1.96785 l 1.85328,1.29808 -1.27183,0.93975 c -0.69951,0.51686 -3.52183,1.48941 -6.27183,2.16123 -7.48047,1.82744 -18.66787,7.62999 -24.14474,12.5231 L 249.5,300.68071 236.04049,296.3832 c -7.40273,-2.36363 -13.616,-4.14102 -13.80726,-3.94976 -0.37696,0.37695 11.99302,5.1978 20.60474,8.03012 l 5.33798,1.75561 -0.52225,1.64042 c -0.28724,0.90222 -1.20707,3.44041 -2.04408,5.64041 -0.83701,2.2 -1.54159,6.1517 -1.56573,8.78155 l -0.0439,4.78154 2.06763,6.21846 c 2.53001,7.6091 8.34534,17.64557 13.83185,23.8719 4.28307,4.86061 5.05104,6.42528 2.7134,5.52824 -0.76292,-0.29276 -11.22542,-1.47933 -23.25,-2.63681 -12.02459,-1.15749 -23.77421,-2.34351 -26.11028,-2.63559 l -4.2474,-0.53106 -1.06904,-1.99752 -1.06904,-1.99752 -3.18356,0.30841 -3.18356,0.3084 -0.3069,2.15344 -0.3069,2.15345 2.21028,1.54813 2.21027,1.54813 2.39575,-1.25526 2.39575,-1.25526 12.70087,1.774 c 6.98549,0.97571 20.09656,2.72059 29.13571,3.87752 l 16.43484,2.10352 7.16044,6.68706 c 3.93824,3.67788 9.68377,8.70715 12.76785,11.17616 3.08408,2.46901 5.62899,4.71411 5.65536,4.98911 0.0264,0.275 -12.43984,0.37266 -27.70268,0.21703 L 237.5,384.93405 l -2.21591,-1.11776 -2.21591,-1.11776 -1.47465,1.22385 c -0.81106,0.67311 -1.26934,1.75345 -1.01841,2.40073 l 0.45623,1.17689 32.65979,0.28578 32.65978,0.28577 7.79158,5.71423 c 4.28536,3.14282 7.80641,6.00153 7.82454,6.35268 0.0181,0.35115 -5.70454,0.96185 -12.71704,1.3571 -7.0125,0.39525 -14.55,1.09559 -16.75,1.55632 l -4,0.83768 18.66634,-0.56323 18.66633,-0.56322 5.57182,3.86845 c 6.63058,4.60352 6.86476,5.36844 1.64354,5.36844 -2.17358,0 -10.16108,0.89015 -17.75,1.9781 -7.58892,1.08796 -28.42303,3.79527 -46.29803,6.01624 -17.875,2.22098 -40.15,5.12654 -49.5,6.4568 l -17,2.41866 -0.95,-0.9349 c -1.39273,-1.37059 -4.13482,-1.14009 -5.46207,0.45915 l -1.15696,1.39406 1.60594,1.60594 c 1.96768,1.96768 1.95861,1.96758 3.8802,0.046 l 1.55997,-1.55997 23.76146,-1.91454 c 13.0688,-1.053 27.58646,-2.37738 32.26146,-2.94308 10.87036,-1.31537 34.15101,-3.70325 54.15307,-5.55443 8.60918,-0.79678 18.73418,-1.89412 22.5,-2.43854 3.76581,-0.54442 8.05379,-0.99877 9.52884,-1.00966 L 336.86381,416 339,419 l 2.13619,3 h -1.62711 -1.62711 l 0.68412,-1.10693 0.68412,-1.10694 -3.1251,0.60694 c -1.71881,0.33381 -4.47904,0.86855 -6.13384,1.1883 -1.6548,0.31976 -2.82277,0.88226 -2.59549,1.25 0.22728,0.36775 -0.55629,0.73857 -1.74127,0.82405 -1.18498,0.0855 -4.17951,0.61151 -6.65451,1.16896 -2.475,0.55745 -7.425,1.56724 -11,2.24397 -3.575,0.67674 -11.225,2.31031 -17,3.63016 -5.775,1.31984 -15.675,3.52281 -22,4.89547 -6.325,1.37266 -13.975,3.10916 -17,3.85889 -3.025,0.74973 -6.61096,1.29204 -7.96879,1.20514 l -2.46879,-0.15801 -0.3303,1.62417 -0.3303,1.62418 1.60148,0.61454 1.60149,0.61455 2.19761,-1.36923 c 1.20868,-0.75307 8.0476,-2.53278 15.1976,-3.9549 20.97117,-4.17112 44.6117,-8.50609 50,-9.16851 2.75,-0.33808 11.91288,-1.76979 20.36195,-3.18157 l 15.36194,-2.56689 3.51186,1.67469 c 4.17069,1.98886 3.60024,3.05243 -1.52109,2.83601 l -3.71466,-0.15698 1.76457,0.72317 1.76457,0.72316 -7.26457,2.43745 c -8.01959,2.69078 -24.41402,9.34228 -25.36123,10.28948 -0.67291,0.67292 3.03647,-0.20955 25.87429,-6.15552 8.6777,-2.25929 16.3277,-4.10091 17,-4.09249 l 1.22237,0.0153 -1.44275,0.91283 -1.44275,0.91283 3.94275,0.32185 L 365.5,435.5 356,438.84893 c -5.225,1.84191 -35.825,12.26898 -68,23.17126 -32.175,10.90228 -65.58956,22.32084 -74.25457,25.37458 l -15.75457,5.55225 -2.29806,-0.87372 -2.29805,-0.87372 -1.69738,0.9499 C 190.76382,492.67193 190,493.96119 190,495.01451 v 1.91512 l 2.01012,1.07579 2.01012,1.07578 2.38553,-2.57402 2.38552,-2.57403 25.35436,-7.97947 C 238.09054,481.56497 252.875,476.79423 257,475.35203 c 33.75515,-11.80154 52.49916,-18.03617 64.26112,-21.37452 7.56862,-2.14816 15.89362,-4.63553 18.5,-5.52748 7.33195,-2.50912 28.43545,-7.58679 29.03596,-6.98629 0.29494,0.29495 0.0414,0.53626 -0.56336,0.53626 -0.60479,0 -8.89229,3.75536 -18.41667,8.34524 -9.52438,4.58988 -22.16646,10.50297 -28.09351,13.14021 -5.92705,2.63723 -10.60774,4.96369 -10.40152,5.1699 0.20621,0.20622 6.63062,-1.922 14.27646,-4.72937 28.36986,-10.41673 38.71806,-13.98713 39.64439,-13.67836 0.52298,0.17433 -17.20521,9.58846 -39.39599,20.92028 -22.19079,11.33183 -45.90117,23.80479 -52.68974,27.71771 C 266.36856,502.79852 260.01117,506 259.02958,506 c -0.98158,0 -2.29755,0.61796 -2.92439,1.37325 l -1.1397,1.37325 0.64453,1.67962 0.64454,1.67962 2.08172,-0.30287 2.08173,-0.30287 0.54996,-2.34698 0.54995,-2.34697 13.99104,-7.51078 c 24.9642,-13.40146 65.33686,-32.20394 77.94175,-36.29927 2.17289,-0.70597 6.34822,-2.34388 9.27851,-3.63979 6.39454,-2.82797 8.12075,-3.00971 3.27078,-0.34435 -1.925,1.0579 -4.625,2.86346 -6,4.01235 l -2.5,2.0889 L 362,463 l 4.5,-2.11311 -2.5,2.04003 c -1.375,1.12202 -3.30225,2.30748 -4.28279,2.63435 -2.47751,0.82592 -46.37118,27.91535 -48.21721,29.75775 -0.55,0.54892 2.15,-0.72334 6,-2.82724 C 325.62649,488.0509 366.27494,467 366.7236,467 c 1.10749,0 -10.98484,10.89507 -16.73102,15.07449 -8.25699,6.00563 -9.15895,7.36986 -1.74258,2.63567 C 353.75553,481.19575 370.71272,472 371.68786,472 c 2.58075,0 -38.87244,28.56123 -48.50435,33.41949 l -5.31648,2.68159 0.44148,1.19946 c 0.63226,1.71775 1.34424,1.41676 9.70874,-4.10434 4.13449,-2.72902 10.88449,-6.72911 15,-8.88908 4.11551,-2.15998 9.28275,-5.06066 11.48275,-6.44597 10.84297,-6.82766 15.14252,-9.17409 16.65756,-9.09066 0.91166,0.0502 2.4439,-0.77761 3.40499,-1.8396 C 375.52363,477.8689 376.78006,477 377.3546,477 c 0.57455,0 -1.53855,2.30235 -4.69577,5.11634 -8.74223,7.79182 -15.33857,14.20843 -13.61682,13.2458 0.84811,-0.47418 6.14322,-3.96704 11.7669,-7.76191 11.95308,-8.06596 13.65809,-8.29351 4.61956,-0.61653 -7.40012,6.28537 -7.53976,6.61331 -3.2202,7.56204 l 3.20826,0.70466 0.3278,-0.98339 c 0.18029,-0.54086 1.01994,-1.8347 1.86589,-2.8752 0.84595,-1.0405 1.25317,-1.32931 0.90492,-0.64181 -0.94182,1.85932 0.17482,1.53278 4.26669,-1.24772 l 3.67572,-2.49771 0.66024,1.7848 c 0.36313,0.98164 2.62268,3.09551 5.02122,4.69749 2.39855,1.60198 5.37172,3.79957 6.60705,4.88353 1.23533,1.08395 2.50523,1.71166 2.82199,1.39489 0.31676,-0.31676 -2.60286,-2.94714 -6.48805,-5.84528 -3.88519,-2.89814 -6.86929,-5.46405 -6.63132,-5.70201 0.60536,-0.60536 10.98421,5.43394 14.67361,8.53836 l 3.05671,2.57206 0.69199,-1.11966 0.69198,-1.11966 4.96852,4.18414 4.96851,4.18414 -3.5,-4.15493 c -10.78904,-12.80792 -22.28824,-31.06687 -28.69035,-45.55585 -5.24963,-11.88073 -5.27892,-12.37468 -0.55965,-9.43874 6.73251,4.18842 6.82203,4.02247 0.99152,-1.83789 l -5.75847,-5.78795 -1.4769,-4.97326 c -0.8123,-2.7353 -1.97781,-9.97625 -2.59004,-16.09101 L 374.80298,406.5 375.47961,397 c 1.73537,-24.36467 8.77984,-44.56487 22.82627,-65.45491 l 6.05183,-9.00036 9.57115,-9.55991 9.57114,-9.5599 10.09509,-6.71246 10.09508,-6.71246 6.40492,0.11831 c 3.5227,0.0651 7.75491,0.43838 9.40491,0.82956 l 3,0.71124 -7.66211,3.5735 c -12.70761,5.92665 -28.89001,18.41436 -35.02199,27.02594 l -2.21294,3.10779 1.81319,-0.69579 1.81319,-0.69579 -3.11467,3.54742 C 416.4016,329.47326 415,331.77708 415,332.64179 v 1.57219 l 1.75,-0.69207 c 0.9625,-0.38063 3.325,-0.88421 5.25,-1.11906 l 3.5,-0.42699 -3,1.26439 c -1.65,0.69541 -4.52803,2.09629 -6.39562,3.11305 l -3.39562,1.84867 1.25251,0.77409 1.25251,0.7741 -0.72733,3.37492 c -0.40003,1.85621 -1.34813,4.59007 -2.10689,6.07526 -1.64239,3.2148 -1.74323,4.14245 -0.35718,3.28583 0.56231,-0.34753 2.41914,-3.41158 4.12629,-6.80902 l 3.1039,-6.17715 6.19533,-6 c 3.40743,-3.3 8.95438,-9.42616 12.32656,-13.61368 l 6.13123,-7.61369 3.44829,-1.63631 c 1.89655,-0.89998 4.0363,-1.63632 4.75499,-1.63632 0.71869,0 3.11425,-1.6875 5.32347,-3.75 2.20922,-2.0625 3.24069,-2.81457 2.29216,-1.67126 -0.94853,1.14331 -1.7246,2.42835 -1.7246,2.85564 0,0.4273 -1.14993,2.14352 -2.55539,3.81382 -2.92218,3.47281 -7.81453,12.71521 -7.1058,13.42395 0.2603,0.2603 4.61286,-0.37532 9.67236,-1.41248 l 9.19907,-1.88576 2.89488,-6.78592 C 471.69731,309.85574 473,306.60611 473,306.3666 c 0,-0.23952 -2.3625,-0.21111 -5.25,0.0631 l -5.25,0.49861 6.15094,-1.5295 6.15094,-1.52951 4.1618,-5.93305 c 2.289,-3.26319 5.02991,-6.39765 6.09092,-6.96549 l 1.92911,-1.03243 -3.40565,5.78083 c -1.8731,3.17945 -3.30351,5.88424 -3.17869,6.01064 0.12482,0.1264 3.25215,-0.0527 6.94963,-0.39795 l 6.7227,-0.62777 2.08729,-4.85205 C 497.30701,293.18342 498.64619,291 499.13496,291 h 0.88868 l -0.63003,3.93995 -0.63002,3.93994 5.8682,-0.52286 c 3.22752,-0.28758 6.43071,-0.69643 7.11821,-0.90857 l 1.25,-0.38569 v -3.53139 c 0,-4.55193 1.71398,-4.5729 2.56598,-0.0314 l 0.6566,3.5 4.13871,0.0136 c 2.27629,0.008 5.15121,0.285 6.38871,0.61664 l 2.25,0.60297 v -2.64875 c 0,-3.44941 -2.54301,-9.46917 -5.19086,-12.28767 l -2.0954,-2.23046 -10.60687,0.0717 c -10.98709,0.0743 -21.55284,1.50383 -33.60687,4.54705 l -7,1.76725 -8.29062,-0.19924 c -4.55984,-0.10957 -9.00125,-0.59692 -9.86981,-1.08299 l -1.5792,-0.88377 7.86982,-3.30384 c 4.32839,-1.81711 12.81567,-4.57364 18.86061,-6.12562 l 10.99081,-2.82178 12.27708,-1.21784 12.27708,-1.21784 12.73212,1.19655 12.73211,1.19655 9,2.37521 c 25.19422,6.64906 44.8358,18.13019 64.27839,37.57277 l 8.88042,8.88042 6.03291,8.83952 C 633.4296,340.53293 643,358.68962 643,361.6001 c 0,0.19572 -2.10508,-0.97915 -4.67797,-2.61083 -7.05197,-4.47222 -6.63899,-2.51708 0.92281,4.36879 l 6.74484,6.14194 1.60332,5.5 c 0.88183,3.025 1.99048,11.125 2.46367,18 l 0.86034,12.5 -1.01188,10.4402 c -2.91395,30.06484 -18.28995,63.47272 -39.78049,86.43219 l -3.62464,3.87239 2.19431,-1.12777 c 1.20687,-0.62027 2.4729,-1.57855 2.81341,-2.1295 0.34051,-0.55095 2.05307,-1.73509 3.80569,-2.63143 l 3.18659,-1.62969 -2,2.29496 -2,2.29497 1.81101,-0.98205 c 0.99605,-0.54013 3.80855,-2.91793 6.25,-5.284 2.44144,-2.36607 4.43899,-4.00466 4.43899,-3.64131 0,1.32476 5.77581,-5.96713 6.26458,-7.90896 l 0.50342,-2 0.116,2.05572 c 0.13386,2.37223 -3.37523,7.46964 -7.22894,10.50097 C 625.19478,497.20535 624,498.58906 624,499.1316 v 0.98643 l 1.25,-0.63317 c 0.6875,-0.34825 0.37649,0.0752 -0.69113,0.94098 -2.63556,2.13731 -1.27358,1.97942 3.37281,-0.39099 4.74758,-2.42203 11.09596,-8.28721 10.98937,-10.15293 l -0.0789,-1.38192 -0.50439,1.25 c -0.86486,2.14336 -2.17457,1.36683 -1.68662,-1 l 0.46387,-2.25 -1.58942,2.75 c -2.29397,3.969 -2.64547,3.37908 -0.70129,-1.17697 l 1.67574,-3.92698 0.81146,1.44801 c 0.4463,0.7964 1.14807,1.23997 1.55949,0.9857 0.41141,-0.25427 1.8308,0.84854 3.15419,2.45068 l 2.40618,2.91299 2.28434,-2.14603 c 1.25635,-1.18032 2.2843,-1.67269 2.2843,-1.09416 0,0.57853 -0.675,1.61207 -1.5,2.29676 -0.825,0.68469 -1.5,1.69227 -1.5,2.23908 v 0.99418 l 2.02377,-0.52922 2.02376,-0.52923 -0.27376,1.66259 L 649.5,496.5 651,496.21588 c 2.93533,-0.556 7.0708,-2.50094 6.78769,-3.1923 -0.15823,-0.38641 -3.21269,-3.29418 -6.78769,-6.46173 -3.575,-3.16755 -6.8944,-6.4515 -7.37645,-7.29768 l -0.87646,-1.53851 1.37646,0.80115 c 0.75705,0.44064 2.05145,1.42921 2.87645,2.19683 3.11357,2.89703 13.57213,9.22096 15.29456,9.24809 l 1.79456,0.0283 -8.79456,-8.59033 -8.79456,-8.59034 4,2.24485 c 8.9807,5.04006 11.40431,6.51174 20.5,12.44816 5.225,3.41017 13.1,8.38946 17.5,11.06509 4.4,2.67563 9.20224,6.17696 10.67163,7.78074 l 2.67164,2.91595 1.57836,-0.60567 C 704.28974,508.33532 705,507.35952 705,506.5 c 0,-1.58089 -0.49531,-1.86928 -5,-2.9112 -2.8646,-0.66257 -33.45386,-22.59249 -43.5,-31.18583 l -3,-2.56616 3.18665,1.57452 c 1.75266,0.86598 3.81807,1.33222 4.58979,1.03608 l 1.40313,-0.53843 1.41022,1.79551 1.41021,1.79551 -1.77417,-1.3925 c -0.97579,-0.76588 -2.02683,-1.13984 -2.33564,-0.83102 -0.91103,0.91103 3.5457,2.88118 4.78499,2.11526 l 1.13384,-0.70076 -0.71789,1.16157 -0.71789,1.16158 1.81338,0.68226 c 0.99736,0.37524 3.95088,1.93539 6.56338,3.46699 5.53191,3.24313 6.31375,2.97132 1.28409,-0.44642 -1.90625,-1.29534 -6.49456,-5.21962 -10.19624,-8.72064 l -6.73033,-6.36549 1.09669,-0.36557 c 0.60318,-0.20106 3.95399,1.38148 7.44624,3.51675 3.49225,2.13526 8.37455,5.01706 10.84955,6.40399 2.475,1.38693 10.92869,6.2078 18.78599,10.71304 13.82494,7.92699 21.37899,11.65927 14.21401,7.02281 -1.925,-1.24567 -13.4,-8.78826 -25.5,-16.76132 -12.1,-7.97305 -23.69565,-15.61272 -25.76811,-16.97705 -2.07247,-1.36432 -3.60697,-2.64174 -3.41001,-2.83869 0.61216,-0.61217 21.65052,7.18252 32.67812,12.1072 5.775,2.57898 12.13149,5.29261 14.12554,6.03027 1.99405,0.73766 13.42609,6.10592 25.40453,11.92947 C 740.50851,492.23528 750.46452,497 750.65453,497 c 3.07909,0 -7.15032,-5.52564 -45.26965,-24.45339 -25.08832,-12.45733 -45.40802,-22.85681 -45.15489,-23.10993 0.46064,-0.46064 12.07358,4.03216 23.17373,8.96542 8.09364,3.59708 8.16153,2.60853 0.0963,-1.4021 -3.61212,-1.79621 -6.37264,-3.46069 -6.13449,-3.69885 0.40551,-0.40551 5.81667,1.74984 33.13449,13.198 6.05,2.53539 10.55,4.1998 10,3.6987 -1.81052,-1.64957 -35.91488,-18.91948 -39.86964,-20.18937 l -3.86965,-1.24256 1.11971,-0.69202 1.11971,-0.69202 -8.07989,-3.4156 c -4.44395,-1.87858 -8.30668,-3.78254 -8.58386,-4.23102 l -0.50396,-0.81542 2.83379,0.68544 c 3.67575,0.8891 18.7586,5.78165 62.03555,20.12299 l 35.20175,11.66534 2.54825,5.67824 2.54824,5.67824 v 5.16479 5.1648 l -1.93415,3.79124 c -6.42828,12.60046 -34.4082,21.83645 -73.21091,24.16644 l -16.67684,1.0014 -21.83905,-1.00828 c -20.52393,-0.94756 -38.22667,-2.6346 -53.42551,-5.09137 l -6.58646,-1.06464 -3.84306,2.26746 -3.84306,2.26746 2.92952,0.74829 c 6.92411,1.76863 44.48368,5.85583 65.92952,7.1744 12.52501,0.77009 41.39527,0.57321 53.10478,-0.36215 z M 730.5,458.11432 c -14.3,-4.80603 -31.625,-10.80498 -38.5,-13.33099 -6.875,-2.52601 -16.65899,-6.04595 -21.7422,-7.8221 -5.08321,-1.77614 -10.03321,-3.81098 -11,-4.52188 l -1.7578,-1.29254 7,1.33676 c 3.85,0.73522 8.35,1.66549 10,2.06727 4.50134,1.09609 2.53633,-0.30066 -3.58976,-2.55166 l -5.41024,-1.98796 3.5,0.5648 c 1.925,0.31064 5.525,1.19895 8,1.97401 2.475,0.77507 7.425,2.05504 11,2.84439 3.575,0.78934 14.6,3.57322 24.5,6.18639 9.9,2.61316 20.025,4.8673 22.5,5.0092 2.475,0.14189 3.375,0.0282 2,-0.25273 -8.94541,-1.82742 -67.32158,-20.32552 -68.79596,-21.79991 -0.88161,-0.8816 0.88778,-0.61944 9.12798,1.35245 4.30761,1.03082 7.45761,1.54845 7,1.15029 -0.45761,-0.39817 -3.98202,-1.53259 -7.83202,-2.52094 -3.85,-0.98835 -7.675,-2.17081 -8.5,-2.62768 l -1.5,-0.83067 2.85051,-0.0304 c 4.74745,-0.0507 39.7699,6.60084 52.78595,10.02515 l 3.63646,0.95669 8.36354,7.32931 c 8.35711,7.32368 19.95827,19.71763 23.31514,24.90844 l 1.77842,2.75 -1.36501,-0.0737 C 757.11425,466.88573 744.8,462.92035 730.5,458.11432 Z M 713,425.28633 c -5.71759,-1.00928 -34.6553,-8.40389 -36.5,-9.32704 l -2,-1.00086 2.5,0.44498 c 5.345,0.95136 16.47058,1.8114 15.92823,1.2313 -0.31447,-0.33637 -3.68947,-1.23965 -7.5,-2.0073 -16.43337,-3.31057 -22.98808,-4.88256 -23.87823,-5.72661 L 660.6,408 l 1.45,10e-4 c 0.7975,8.2e-4 9.325,0.90587 18.95,2.01123 l 17.5,2.00974 8.25884,5.64696 c 7.86071,5.37474 11.51733,8.49156 9.6136,8.1944 -0.47984,-0.0749 -1.99744,-0.33477 -3.37244,-0.57749 z m -365.5,-9.02813 -3,-1.66172 4,-0.74061 c 2.2,-0.40734 5.575,-0.73231 7.5,-0.72216 l 3.5,0.0184 -3.5,1.28349 -3.5,1.28349 1.5,0.51135 c 0.825,0.28124 0.24013,0.35121 -1.29971,0.15548 l -2.79971,-0.35585 0.60873,0.98494 c 0.7907,1.27938 0.56379,1.22231 -3.00931,-0.75686 z m -8.5,-6.06463 c 0,-0.57168 -2.47152,-2.58536 -5.49226,-4.47485 l -5.49226,-3.43543 6.13895,-0.64164 C 337.53085,401.28874 345.65393,401 352.20571,401 h 11.91232 l -0.54026,0.87417 c -0.29715,0.48079 -4.9362,1.42482 -10.30902,2.09785 -5.37281,0.67303 -10.44375,1.64004 -11.26875,2.1489 l -1.5,0.92521 9,-0.60941 9,-0.6094 2.5,0.95749 2.5,0.95749 -5.5,1.0842 c -3.025,0.59631 -8.5375,1.38172 -12.25,1.74535 l -6.75,0.66114 z m 337.81018,-5.04143 c -14.49354,-3.28824 -15.48011,-4.15369 -4.72685,-4.14656 9.90417,0.007 14.31846,1.07327 18.41667,4.45037 l 3,2.47212 -2.5,-0.0619 c -1.375,-0.034 -7.76042,-1.25536 -14.18982,-2.71404 z M 318.30296,394.8945 c -3.74163,-2.80802 -7.23157,-5.50913 -7.75543,-6.00247 l -0.95247,-0.89697 14.45247,0.54196 c 7.94886,0.29808 19.62747,0.96955 25.95247,1.49216 6.325,0.5226 12.3775,0.95483 13.45,0.9605 l 1.95,0.0103 -0.95,0.88579 c -0.5225,0.48719 -7.7,1.43347 -15.95,2.10284 -8.25,0.66938 -15.1875,1.39577 -15.41667,1.61421 -0.22916,0.21844 5.84584,0.44236 13.5,0.49761 l 13.91667,0.10045 -3.53869,0.84002 c -3.31846,0.78774 -24.82553,2.92607 -29.65835,2.94876 L 325.10592,400 Z M 662.5,390 l -3,-0.76337 3,-0.103 c 1.65,-0.0566 3.675,0.33321 4.5,0.86637 l 1.5,0.96937 -1.5,-0.103 c -0.825,-0.0566 -2.85,-0.44652 -4.5,-0.86637 z m -349.43015,-3.67607 -6.43015,-0.42872 -9.56985,-8.34914 c -5.26342,-4.59203 -10.66079,-9.51845 -11.99416,-10.9476 L 282.65137,364 l 2.42432,0.009 c 5.50736,0.0206 76.74413,9.52933 79.92431,10.66835 l 1.5,0.53725 -2,0.82238 -2,0.82238 1.5,0.19545 c 6.787,0.88436 -12.12767,1.72862 -32,1.42833 l -24.5,-0.37022 7.5,0.86063 c 4.125,0.47334 12.9,1.35573 19.5,1.96087 6.6,0.60514 16.05,1.61906 21,2.25316 l 9,1.15289 -3,0.88778 c -3.31489,0.98096 -38.28435,1.77206 -48.43015,1.09561 z m 366.1939,-9.04151 c 1.52006,-0.22986 3.77006,-0.22371 5,0.0136 1.22994,0.23736 -0.0137,0.42542 -2.76375,0.41792 l -5,-0.0137 z M 345.5,368.88185 c -9.49765,-1.01691 -25.69914,-3.00317 -49,-6.00726 l -17,-2.19174 -3.25473,-3.59143 c -1.7901,-1.97528 -5.94529,-7.54747 -9.23374,-12.38264 l -5.979,-8.79122 -2.13744,-7.03704 -2.13743,-7.03704 0.507,-3.78003 c 0.27886,-2.07901 1.2654,-5.3782 2.19231,-7.33153 l 1.6853,-3.55151 2.67887,0.7987 c 1.47337,0.43929 11.00386,3.8144 21.17886,7.50025 26.17014,9.48004 52.89239,19.06968 64,22.96729 12.80281,4.49245 20.1934,7.36223 22,8.54264 l 1.5,0.98008 -2,0.0151 c -1.1,0.008 -5.55681,-0.66547 -9.90403,-1.49733 -11.0373,-2.11203 -10.51099,-1.22542 1.1123,1.87376 l 9.79173,2.61083 -5.25216,-0.52062 c -2.88868,-0.28634 -8.73868,-1.3769 -13,-2.42346 -20.48684,-5.03149 -25.72361,-6.10044 -36.81092,-7.51396 -14.45651,-1.84306 -25.49926,-3.96613 -33.36918,-6.41553 l -5.88239,-1.8308 -1.34267,0.8663 L 274.5,334 l 1.5,0.98469 c 0.825,0.54158 2.625,0.99939 4,1.01736 1.375,0.018 5.65,0.72907 9.5,1.58021 6.30919,1.39481 11.92684,2.32812 24,3.98734 8.24597,1.13324 49.27215,12.53472 52.5,14.59014 l 1.5,0.95516 -3.75,-0.55745 c -2.0625,-0.3066 -5.4375,-0.77821 -7.5,-1.04802 l -3.75,-0.49057 7.47382,2.20167 7.47382,2.20166 -2.47382,0.68923 -2.47382,0.68922 1.91667,0.0997 c 1.05416,0.0548 1.70416,0.31218 1.44444,0.5719 -1.09336,1.09337 -25.54909,-2.82955 -40.36111,-6.47427 -8.8,-2.16537 -18.025,-4.17821 -20.5,-4.47297 l -4.5,-0.53592 7,2.05514 c 3.85,1.13033 11.78143,3.59627 17.6254,5.47986 5.84397,1.8836 15.74397,4.5112 22,5.83912 6.25603,1.32793 13.36441,2.95261 15.7964,3.61042 l 4.4218,1.19601 -1.4218,0.89988 c -1.68544,1.06675 -9.36524,0.99618 -20.4218,-0.18764 z m 4,-33.51237 c -13.2,-4.1112 -29.4,-9.43793 -36,-11.83717 -6.6,-2.39925 -20.55,-7.3852 -31,-11.0799 -10.45,-3.69469 -19.225,-6.92488 -19.5,-7.17819 -2.09455,-1.92934 14.17992,-11.57882 25.86726,-15.33726 l 8.47809,-2.7264 4.07524,1.43783 c 5.39978,1.90516 26.55824,13.09288 44.67302,23.62126 8.02649,4.66503 19.18596,10.8408 24.79884,13.72393 5.61288,2.88314 10.06412,5.38319 9.89165,5.55566 -0.17247,0.17247 -6.83195,-1.93137 -14.79884,-4.6752 -7.96689,-2.74382 -15.66591,-5.36524 -17.10894,-5.82537 -3.8256,-1.21985 -24.88992,-9.59287 -35.72801,-14.2018 -8.80106,-3.74268 -14.07352,-4.92737 -6.93407,-1.55804 C 322.06373,312.76869 340.92487,321 342.21466,321 c 1.17181,0 21.81295,10.30572 21.42272,10.69595 -0.1865,0.18651 -4.79371,-1.43913 -10.23824,-3.61252 -15.56349,-6.21276 -23.67269,-9.14321 -24.10498,-8.71092 -0.2192,0.2192 1.76244,1.39205 4.40365,2.60634 5.7223,2.63082 24.61786,11.60886 35.80219,17.01106 l 8,3.86413 -2,-0.005 c -1.1,-0.003 -12.8,-3.36853 -26,-7.47973 z M 368,320.90671 c -4.125,-2.21012 -20.775,-10.83394 -37,-19.16404 l -29.5,-15.14565 3.5,-0.74984 c 1.925,-0.41241 8.9,-1.28214 15.5,-1.93273 l 12,-1.18289 20.44934,12.77734 c 19.82075,12.38459 31.42119,19.87758 35.55066,22.96298 2.8252,2.1109 -16.01363,-5.70531 -26.76263,-11.10378 -4.9382,-2.48011 -10.075,-4.92617 -11.4151,-5.43567 l -2.43657,-0.92638 0.61617,0.99697 c 0.33889,0.54834 0.99878,0.99698 1.46642,0.99698 1.46205,0 22.37807,12.72379 25.53171,15.53164 l 3,2.67105 -2.86754,-2.08772 c -1.57714,-1.14825 -3.2479,-1.85264 -3.7128,-1.56532 -0.46489,0.28732 -2.5558,-0.55741 -4.64646,-1.87719 C 362.6843,312.77562 353,307.8119 353,308.35669 c 0,0.21471 4.94357,3.62985 10.9857,7.5892 14.7352,9.65583 16.2339,11.50791 4.0143,4.96082 z m 4.5,-18.67179 C 353.79809,290.41245 343,283.1751 343,282.46274 343,282.20823 347.39125,282 352.75834,282 h 9.75834 l 6.43696,4.20591 c 3.54032,2.31324 10.73657,8.42451 15.99165,13.58058 9.86108,9.67528 10.15851,10.48286 1.53463,4.1668 -2.76104,-2.02217 -7.71104,-5.15274 -11,-6.95681 L 369.5,293.71633 375,298.5926 c 7.94082,7.04029 15.58031,14.36228 15,14.37659 -0.275,0.007 -8.15,-4.82364 -17.5,-10.73427 z m 23,-5.161 c -10.43866,-6.83372 -11.7095,-6.97272 -4.88344,-0.53411 2.68589,2.53344 4.20844,4.27003 3.38344,3.85908 -2.81855,-1.40398 -13.49344,-8.69327 -17.78539,-12.14467 -2.35696,-1.89536 -5.50696,-3.81426 -7,-4.26421 l -2.71461,-0.8181 8.71931,-0.086 8.7193,-0.086 10.7807,9.65551 c 5.92938,5.31053 10.96819,9.81053 11.19736,10 0.22916,0.18947 0.004,0.3368 -0.5,0.3274 -0.50417,-0.009 -4.96667,-2.66845 -9.91667,-5.90899 z m 8.5,-2.36145 c -3.025,-2.32115 -7.75,-5.96368 -10.5,-8.09451 l -5,-3.87423 4.85269,0.51687 4.85269,0.51687 4.97576,4.86127 c 4.77829,4.66832 8.71416,10.39784 7.09454,10.32763 -0.42662,-0.0185 -3.25068,-1.93275 -6.27568,-4.2539 z m 2.5395,-5.39293 -5.96049,-4.67921 1.31413,-0.43804 c 1.664,-0.55467 5.66505,2.40882 8.8791,6.57655 3.26773,4.23734 2.83279,4.08739 -4.23274,-1.4593 z m 6.9605,-1.78854 -3,-2.45907 1.5,-0.005 c 0.825,-0.002 2.30851,1.10632 3.29668,2.46403 2.24505,3.08461 1.9669,3.08454 -1.79668,-4.2e-4 z m 3.94113,8e-4 -1.94113,-1.46819 1.64301,-0.0318 c 0.90366,-0.0175 1.90203,0.6432 2.21862,1.4682 0.71506,1.86343 0.5057,1.86689 -1.9205,0.0318 z M 503,526.58179 C 503,525.0024 501.5621,523 500.42796,523 c -4.92829,0 -19.87744,-6.89868 -26.1105,-12.04938 C 471.68802,508.77778 468.76643,507 467.82503,507 c -0.94139,0 -2.38657,-0.96362 -3.2115,-2.14137 -0.82493,-1.17776 -5.7008,-6.46526 -10.83527,-11.75 C 439.67871,478.5964 435.91357,472.9616 428.03549,454.58279 L 426.07107,450 h -2.38631 C 420.55854,450 415,451.9587 415,453.06031 c 0,6.14178 9.64227,22.17026 21.13892,35.1395 l 8.24419,9.30019 -7.94156,-7.5 c -4.36785,-4.125 -8.52957,-8.2875 -9.24825,-9.25 -0.71869,-0.9625 -1.95619,-1.75 -2.75,-1.75 H 423 v 1.66033 c 0,0.91318 -2.16421,-2.57432 -4.80935,-7.75 -2.64515,-5.17568 -6.05176,-11.36397 -7.57025,-13.75174 l -2.7609,-4.34141 -1.75849,1.59141 C 405.13384,457.28386 403.59045,458 402.67126,458 401.75207,458 401,458.1664 401,458.36978 c 0,1.46151 8.95945,17.17215 12.33525,21.63022 2.29064,3.025 5.28978,7.19402 6.66477,9.26449 5.54437,8.34876 24.74765,21.54826 42.53868,29.23925 l 10.9613,4.73853 13.5,1.77237 c 16.01639,2.10273 16,2.10113 16,1.56715 z m 9.60289,-2.83179 -0.16307,-3.25 -4.24021,-0.89636 c -2.33212,-0.49301 -4.46667,-0.66991 -4.74345,-0.39313 -0.98185,0.98184 0.78307,3.78996 2.40083,3.8199 l 1.64301,0.0304 -1.77103,1.03105 C 503.09302,525.62645 504.61057,527 508.942,527 h 3.82397 z m 13.10447,0.64091 0.36537,-1.10909 -4.33158,-0.59371 c -2.38237,-0.32654 -5.09873,-0.8881 -6.03636,-1.2479 L 514,520.78602 v 2.6569 2.65689 l 5.671,-0.29991 5.67099,-0.2999 z M 537.5,525 l 0.61803,-1 h -4.5 c -2.475,0 -4.77811,0.45 -5.11803,1 l -0.61803,1 h 4.5 c 2.475,0 4.77811,-0.45 5.11803,-1 z m 16.12969,-3.53371 c 8.874,-2.00522 16.32093,-5.58074 25.34386,-12.16843 7.74689,-5.65606 10.30021,-8.44291 5.77645,-6.30477 l -2.25,1.06345 2.97356,-2.27827 c 5.53055,-4.23738 13.03451,-11.73499 11.76665,-11.7567 -0.69288,-0.0119 -2.04288,0.9028 -3,2.0326 -2.4562,2.89932 -12.29014,10.22923 -12.90236,9.61701 -0.28003,-0.28003 0.39805,-0.99466 1.50685,-1.58806 C 585.32544,498.75546 600.51285,481 599.16774,481 c -0.53242,0 -5.36594,4.74927 -10.74117,10.55393 l -9.77314,10.55394 -7.02031,4.94606 -7.0203,4.94607 1.94359,0.006 1.94359,0.006 -2.5,1.33708 c -1.375,0.7354 -4.3,2.31456 -6.5,3.50925 l -4,2.17216 2.2852,-1.7654 c 6.31547,-4.87896 6.0535,-5.07496 -1.5352,-1.14866 -4.5375,2.34765 -8.25,4.61766 -8.25,5.04447 0,0.4268 -0.6029,0.54465 -1.33979,0.26189 l -1.33978,-0.51413 -1.41022,1.71893 -1.41021,1.71892 2.5,-0.74772 c 1.375,-0.41125 5.25836,-1.37102 8.62969,-2.13282 z m -9.19141,-1.05213 c 3.55262,-1.42222 6.95605,-3.18437 7.56317,-3.9159 l 1.10385,-1.33006 -1.89909,-0.60275 c -1.0445,-0.33151 -4.55569,0.0407 -7.80265,0.82711 -3.24696,0.78642 -7.02856,1.6954 -8.40356,2.01996 -1.375,0.32456 -3.30851,1.71452 -4.29668,3.0888 L 528.90663,523 h 4.53616 4.53617 z M 502,520.04066 v -1.95934 l -7.19647,-3.61166 -7.19647,-3.61165 -2.30353,1.04955 c -2.72202,1.24024 -3.03573,0.3741 -0.55353,-1.52831 l 1.75,-1.34124 -1.5,-1.00369 c -0.825,-0.55203 -2.34688,-1.01059 -3.38197,-1.01901 -2.22997,-0.0181 -8.97384,-3.99283 -8.15833,-4.80834 0.31069,-0.3107 1.89114,0.41563 3.51211,1.61406 1.62096,1.19844 3.5037,2.17897 4.18386,2.17897 h 1.23666 l -3.19616,-3.29761 c -1.75789,-1.81368 -3.18186,-3.72618 -3.16437,-4.25 0.0175,-0.52381 0.62951,-0.16502 1.36004,0.79733 1.85602,2.44499 8.56374,6.87123 10.65126,7.02848 0.95544,0.072 1.57117,0.60132 1.36828,1.17633 -0.20288,0.57501 1.98361,2.50932 4.85887,4.29848 5.60407,3.48718 6.49911,3.22277 4.57491,-1.35153 -0.67129,-1.59582 -1.31557,-4.47648 -1.43173,-6.40148 -0.11616,-1.925 -1.51513,-8.225 -3.10882,-14 l -2.89761,-10.5 -2.69155,-0.31527 -2.69156,-0.31527 0.62877,3.31527 c 0.34582,1.8234 1.12795,3.95144 1.73805,4.72899 l 1.10929,1.41372 -2.25,-1.1989 -2.25,-1.19891 v 2.19017 2.19018 l -2.13802,-1.90499 c -1.1759,-1.04775 -2.75694,-3.36749 -3.51342,-5.15499 l -1.3754,-3.25 h -1.48658 C 475.66896,480 475,479.55 475,479 c 0,-0.55 0.5051,-1 1.12244,-1 h 1.12245 l -0.95957,-1.25 C 475.75756,476.0625 474.27917,472.575 473,469 c -1.27917,-3.575 -2.70501,-6.99918 -3.16854,-7.60929 l -0.84279,-1.10929 -3.9655,0.28246 c -2.18103,0.15535 -4.3853,0.54189 -4.89838,0.85899 l -0.93286,0.57655 1.90403,5.01102 c 1.04722,2.75605 1.90404,6.52609 1.90404,8.37784 v 3.36683 L 461.5,480 c -0.825,0.68469 -1.5,0.88979 -1.5,0.45578 0,-0.43401 -0.26146,-0.52765 -0.58102,-0.20809 -0.31956,0.31956 -0.0497,1.57386 0.59977,2.78734 l 1.18079,2.20632 -1.14029,-0.70473 c -2.17157,-1.3421 -6.44598,-9.09955 -12.69335,-23.03662 l -6.27558,-14 -3.79516,0.31623 c -2.08734,0.17393 -4.23419,0.74796 -4.77078,1.27562 l -0.97562,0.95939 1.81177,5.22438 c 2.47132,7.12628 13.70639,27.81283 15.47375,28.49103 0.78686,0.30195 2.31486,-0.003 3.39556,-0.67812 1.08071,-0.67491 2.20425,-0.98777 2.49676,-0.69526 0.29252,0.29252 -0.6513,1.07093 -2.09737,1.7298 -1.44608,0.65888 -2.62923,1.65326 -2.62923,2.20973 0,1.50216 15.91045,16.56953 19.40473,18.3765 1.65844,0.85761 6.18332,3.9078 10.05531,6.77821 6.24244,4.62769 17.84334,10.3294 21.28996,10.46376 L 502,522 Z m -26.05273,-34.67935 c -0.55177,-1.45128 -0.72884,-2.91307 -0.39349,-3.24843 0.76106,-0.76106 3.44622,2.80613 3.44622,4.57825 0,2.28641 -2.01089,1.41044 -3.05273,-1.32982 z m -7.30432,-16.73343 C 467.73933,466.49821 467,464.08061 467,463.25543 v -1.50032 l 1.48899,1.23575 c 0.81894,0.67967 1.24813,1.62547 0.95376,2.10178 -0.29438,0.47631 -0.0352,1.80027 0.57586,2.94213 0.6111,1.14186 0.92124,2.61366 0.68919,3.27067 -0.23204,0.65701 -1.16123,-0.5479 -2.06485,-2.67756 z M 529.03326,520 c 2.66538,-5.43985 3.16496,-7.04105 2.631,-8.43254 L 531.06277,510 h -4.01233 -4.01234 l -0.58179,2.75 c -0.31999,1.5125 -0.79233,3.78319 -1.04965,5.04599 -0.6706,3.291 0.35179,4.35977 3.83634,4.01037 L 528.2983,521.5 Z m -188.5046,-6.15358 c 4.12364,-3.38446 7.28464,-6.36645 7.02446,-6.62663 -0.26018,-0.26018 -2.77164,1.45143 -5.58103,3.80358 l -5.10797,4.27663 -3.18206,0.1 -3.18206,0.1 -0.31955,2.25 -0.31955,2.25 h 1.58512 c 0.87182,0 4.95901,-2.76911 9.08264,-6.15358 z m 180.03037,3.77441 c 0.32842,-1.30854 0.4495,-3.67104 0.26905,-5.25 L 520.5,509.5 h -3 -3 l -0.30226,5.25 -0.30226,5.25 h 3.03321 3.03321 z M 381.5,517 v -1.5 l -2.75,-0.31642 -2.75,-0.31642 v 1.39975 c 0,2.02987 1.13431,2.85802 3.45885,2.52527 L 381.5,518.5 Z M 512,514 v -5 h -5 -5 v 1.56574 c 0,2.8218 2.10098,5.57245 5.32874,6.9765 C 511.92144,519.54003 512,519.48046 512,514 Z m 32.66515,-1.68947 c 2.29083,-1.32061 4.63854,-2.97152 5.21713,-3.66869 l 1.05199,-1.26756 -4.21714,0.5876 -4.21713,0.5876 0.24386,2.25716 0.24386,2.25716 -2.06092,-1.10297 -2.06092,-1.10297 -2.43294,1.59412 C 535.09482,513.32875 534,514.47448 534,514.99805 V 515.95 l 3.25,-0.61917 c 1.7875,-0.34055 5.12432,-1.69968 7.41515,-3.0203 z m 18.32828,-1.80654 c 3.16529,-1.92281 6.31233,-4.16748 6.99344,-4.98817 l 1.23838,-1.49215 -1.56474,-0.60045 c -0.8606,-0.33024 -2.08433,-0.27932 -2.71939,0.11317 l -1.15465,0.71361 1.27451,0.78769 1.27451,0.78769 -3.41775,2.08357 c -1.87976,1.14597 -3.86774,2.06931 -4.41774,2.05188 -0.55,-0.0174 0.125,-0.6543 1.5,-1.41525 1.375,-0.76094 2.5117,-1.7575 2.52599,-2.21456 0.0143,-0.45706 0.84779,-2.05974 1.85222,-3.5615 l 1.82623,-2.73048 1.83204,0.98048 c 2.9533,1.58056 3.60626,1.23512 7.37835,-3.9035 4.11354,-5.60375 4.37238,-6.55514 1.58517,-5.82627 l -2,0.52301 v -0.90638 C 577,490.40787 576.55,490 576,490 c -0.55,0 -1,1.09844 -1,2.44098 0,1.34254 -0.40285,2.68996 -0.89522,2.99426 -1.21419,0.75041 -2.19078,-2.04754 -1.41778,-4.06196 0.34333,-0.8947 -3.34198,2.4876 -8.18958,7.51621 -4.84759,5.02861 -10.43012,10.14293 -12.40561,11.36514 l -3.59181,2.22222 3,0.64326 c 5.0891,1.09121 5.57113,0.98149 11.49343,-2.61612 z m -1.02232,-6.8111 C 565.53022,500.0118 568.63747,497 568.8761,497 c 1.02029,0 -8.2312,9.73019 -11.3761,11.96473 -1.1,0.78158 0.912,-1.59074 4.47111,-5.27184 z M 407,512.636 c 0,-0.54572 -7.49971,-5.636 -8.30375,-5.636 -2.18775,0 -0.096,2.37024 3.55375,4.02693 4.63437,2.10362 4.75,2.14279 4.75,1.60907 z m 236.36163,-1.136 0.5756,-1.5 h -1.46861 C 641.66088,510 641,510.675 641,511.5 c 0,0.825 0.40186,1.5 0.89301,1.5 0.49116,0 1.15203,-0.675 1.46862,-1.5 z M 656.5,512 l 0.61803,-1 H 655 652.88197 l 0.61803,1 c 0.33992,0.55 1.01492,1 1.5,1 0.48508,0 1.16008,-0.45 1.5,-1 z m 23.5,0.0352 c 0,-0.53065 -0.96493,-1.48123 -2.14429,-2.1124 -1.17935,-0.63117 -4.08438,-2.93591 -6.45561,-5.12163 l -4.31133,-3.97405 -1.04439,0.64547 c -1.53509,0.94874 -1.27135,2.52743 0.42224,2.52743 0.80664,0 3.74666,2.025 6.53338,4.5 4.98089,4.42373 7,5.44344 7,3.53518 z m -291.75,-4.22962 -2.19444,-2.19445 -0.77621,0.77621 -0.77621,0.7762 1.93956,1.41824 c 3.01267,2.20291 4.2535,1.67 1.8073,-0.7762 z m 149.44424,-0.27396 2.80576,-2.4684 -3.63337,-0.0316 -3.63337,-0.0316 -0.50787,1.9421 c -0.98705,3.7745 1.071,4.01867 4.96885,0.5895 z m 94.765,-0.27432 C 634.95666,505.74879 637,504.125 637,503.64887 v -0.86569 l -2.75,0.66382 c -8.00579,1.93248 -10.25,2.71884 -10.25,3.59154 0,0.5288 0.5625,0.96835 1.25,0.97677 l 1.25,0.0153 L 625,509 l -1.5,0.96937 2.20924,0.0153 c 1.21509,0.008 4.25259,-1.21891 6.75,-2.72741 z m -107.73043,-5.3862 c 0.31404,-2.40409 1.02976,-4.66975 1.59049,-5.0348 l 1.01951,-0.66371 -1.06732,-3.33629 -1.06731,-3.33628 -0.10209,2.25 C 525.00165,493.96358 523,495.05198 523,492.89301 v -1.10699 l -1.62706,0.62436 -1.62705,0.62436 -1.29118,-1.7658 c -0.71016,-0.97119 -1.62367,-1.43332 -2.03003,-1.02695 -1.15537,1.15537 -2.25566,9.91313 -1.69042,13.45493 l 0.5102,3.19692 3.62777,0.31211 c 4.65794,0.40072 5.16806,-0.0639 5.85658,-5.33487 z M 530,507 c 0,-0.55 -0.0384,-1.28719 -0.0854,-1.6382 -0.047,-0.351 0.37797,-0.92458 0.94432,-1.2746 0.56635,-0.35003 1.45378,-2.5237 1.97205,-4.83039 l 0.94233,-4.19399 -1.96201,-0.62272 c -1.0791,-0.34249 -2.04059,-0.46912 -2.13664,-0.28141 -0.096,0.18772 -0.77021,1.40065 -1.49812,2.6954 -0.72792,1.29476 -1.50892,4.33226 -1.73556,6.75 L 526.02889,508 h 1.98556 C 529.1065,508 530,507.55 530,507 Z m -17.61865,-2.75 c 0.29714,-1.5125 0.5129,-4.4375 0.47946,-6.5 L 512.8,494 h -1.4 -1.4 l -0.0515,2.25 -0.0515,2.25 -1.55542,-3.75 -1.55543,-3.75 h -3.86467 -3.86467 l 0.57889,5.75 c 0.31839,3.1625 0.98196,6.51042 1.4746,7.43981 l 0.8957,1.68981 3.74703,0.39209 c 2.06087,0.21565 4.27378,0.46773 4.91757,0.56019 L 511.84109,507 Z m -151.96888,1.14522 C 362.44776,504.6142 361.45608,503 358.94098,503 H 357 v 1.5 c 0,1.61292 0.91596,1.85321 3.41247,0.89522 z m 19.08091,-1.31397 1.99339,-0.77817 -3.03278,-1.56831 -3.03279,-1.56832 -3.4606,0.77652 -3.4606,0.77652 2,0.71241 c 1.1,0.39182 2.675,1.10347 3.5,1.58144 1.83324,1.06211 2.91246,1.07545 5.49338,0.0679 z m 174.92483,0.31176 C 555.2882,504.05917 556,503.33171 556,502.77643 v -1.00958 l -2.5846,0.49407 -2.58459,0.49408 0.47114,-1.6275 c 0.25913,-0.89513 0.78393,-2.5275 1.16623,-3.6275 l 0.69508,-2 -1.81325,2.75 c -0.99728,1.5125 -2.15902,2.75 -2.58163,2.75 C 548.34577,501 548,501.6437 548,502.43045 v 1.43045 l 2.25,0.43337 c 1.2375,0.23835 2.3257,0.49465 2.41821,0.56955 0.0925,0.0749 0.88002,-0.13696 1.75,-0.47081 z M 399,502.56262 c 0,-0.79055 -2.9974,-3.98025 -6.66088,-7.08821 l -6.66089,-5.65083 -0.90057,1.60924 c -0.49532,0.88509 -1.33407,1.34133 -1.8639,1.01388 l -0.96331,-0.59536 0.27477,1.32433 0.27478,1.32433 -1.25,-0.25 c -1.90363,-0.38073 -1.49067,1.4247 0.5,2.18596 0.9625,0.36807 4.675,2.19069 8.25,4.05026 7.25965,3.77618 9,4.1777 9,2.0764 z M 542.30396,500.75 c 5.00501,-10.61877 5.97973,-15.89958 1.76124,-9.54192 l -2.18429,3.29192 0.61809,-3.1548 0.61809,-3.1548 -0.95104,-0.58778 -0.95105,-0.58778 -3.6075,7.59637 C 533.19473,503.90325 533.19245,504 537.38606,504 h 3.38606 z m 102.7457,-0.27568 c 1.62269,-0.83912 2.95034,-1.96412 2.95034,-2.5 0,-1.79916 -2.63055,-0.99649 -5,1.52568 -2.699,2.87295 -2.13778,3.13973 2.04966,0.97432 z m 18.71267,-0.76223 1.26233,-0.97745 -1.18008,-1.42192 c -0.64905,-0.78205 -2.07486,-1.90078 -3.16847,-2.48606 l -1.98837,-1.06415 -1.75585,2.32779 -1.75585,2.32778 1.99297,1.7285 1.99297,1.72849 1.66901,-0.59277 c 0.91796,-0.32602 2.23706,-1.03262 2.93134,-1.57021 z M 368.77749,499.4433 c 2.91082,-2.03882 2.80902,-3.25799 -0.33801,-4.04785 l -2.56052,-0.64265 -1.9905,2.13655 c -3.46189,3.7159 0.3713,5.71829 4.88903,2.55395 z M 643.427,497.52722 c 1.05985,-0.82861 1.61498,-1.81857 1.23363,-2.19992 -0.82405,-0.82406 -5.84874,2.73703 -6.46328,4.58065 l -0.42875,1.28626 1.8657,-1.08022 c 1.02613,-0.59412 2.73285,-1.75817 3.7927,-2.58677 z m -4.62031,-3.0199 c 3.58907,-4.1278 0.90934,-2.83133 -3.35374,1.62255 l -3.95295,4.12987 2.5633,-1.62255 c 1.40981,-0.8924 3.54434,-2.75084 4.74339,-4.12987 z M 512,491.53138 v -1.46861 l -1.5,0.5756 c -0.825,0.31659 -1.5,0.97746 -1.5,1.46862 0,0.49115 0.675,0.89301 1.5,0.89301 0.825,0 1.5,-0.66088 1.5,-1.46862 z m 74.32878,-7.30389 c 1.9529,-2.34987 3.84365,-5.19542 4.20167,-6.32343 l 0.65094,-2.05094 -1.82967,-1.33788 c -1.00631,-0.73584 -2.28463,-1.05085 -2.84069,-0.70003 l -1.01103,0.63787 1.75,0.34678 c 2.28001,0.45182 2.21101,1.47295 -0.25,3.70014 -1.1,0.99549 -2,2.35454 -2,3.02013 0,0.66558 -0.9,2.35432 -2,3.75274 -4.52029,5.74662 -1.53728,4.80983 3.32878,-1.04538 z M 522,485.67319 v -1.3268 l -3.25,0.50391 -3.25,0.50391 2.5,0.72321 c 3.70928,1.07305 4,1.04367 4,-0.40423 z M 504,482 c 0,-1.1 -0.45,-2 -1,-2 -0.55,0 -1,0.9 -1,2 0,1.1 0.45,2 1,2 0.55,0 1,-0.9 1,-2 z m -4,-1.05902 C 500,480.42344 499.33912,480 498.53138,480 h -1.46861 l 0.5734,1.49426 C 498.22646,483.03252 500,482.61741 500,480.94098 Z M 598.5,477 l 2,-0.85943 -2.75,-0.0703 C 596.2375,476.03163 595,476.45 595,477 c 0,1.17371 0.76862,1.17371 3.5,0 z M 491,476.08179 C 491,474.46551 489.81108,472 489.03168,472 c -0.41488,0 -0.53928,1.125 -0.27643,2.5 0.44687,2.33765 2.24475,3.60454 2.24475,1.58179 z m 130.11542,-11.65607 c 2.15915,-3.69485 3.68075,-6.96288 3.38134,-7.26229 -1.05175,-1.05175 -3.74267,2.68859 -6.10316,8.48332 -3.67499,9.02165 -3.11751,8.77156 2.72182,-1.22103 z M 617.99488,459.75 c 0.003,-0.4125 -0.21073,-0.75 -0.47456,-0.75 -0.59808,0 -4.5317,7.63235 -4.48911,8.71016 0.0384,0.97232 4.95653,-6.91478 4.96367,-7.96016 z m -9.4091,3.08411 c 0.86436,-1.67148 2.15707,-4.90544 2.87269,-7.18658 0.71562,-2.28114 1.60608,-4.87696 1.9788,-5.76849 l 0.67767,-1.62096 -1.78109,-0.68346 -1.78109,-0.68347 -1.27638,1.74555 c -1.71398,2.34401 -1.61249,3.70626 0.22362,3.00167 0.825,-0.31658 1.5,-0.4213 1.5,-0.23271 0,0.59009 -2.7372,7.91905 -4.45748,11.93508 l -1.64519,3.84075 1.05845,-0.65416 c 0.58214,-0.35978 1.76564,-2.02173 2.63,-3.69322 z m -12.82544,-11.4071 c -0.26075,-0.26075 -1.16376,-0.20943 -2.0067,0.11403 l -1.53262,0.58813 0.32926,1.68541 c 0.18109,0.92698 0.65436,3.03542 1.0517,4.68542 l 0.72244,3 0.955,-4.79945 c 0.52526,-2.6397 0.74167,-5.01279 0.48092,-5.27354 z M 607.3985,457.25 c 0.90907,-1.7875 1.23533,-3.25 0.72501,-3.25 -0.51032,0 -1.42188,1.41715 -2.02568,3.14922 -1.85333,5.31645 -1.37088,5.35383 1.30067,0.10078 z m -201.96063,-2.18135 1.74785,-1.93135 -4.54122,-7.02 c -2.49766,-3.861 -5.02668,-8.82289 -5.62003,-11.02643 -1.18455,-4.39907 -2.64114,-5.8742 -4.23074,-4.2846 l -1.03201,1.03201 1.22598,5.33086 c 0.67429,2.93197 2.24918,7.58086 3.49975,10.33086 1.25058,2.75 2.58283,6.0125 2.96055,7.25 l 0.68678,2.25 h 1.77762 c 0.97769,0 2.56416,-0.86911 3.52547,-1.93135 z m -111.29776,-8.00952 c 19.36108,-4.94117 32.18785,-8.91995 35.56487,-11.03199 l 1.79502,-1.12264 -2,0.53429 c -1.1,0.29387 -10.1,2.82491 -20,5.62455 -9.9,2.79963 -22.05,6.22444 -27,7.61067 C 273.84759,451.0971 271.46504,452 273.72344,452 c 0.58122,0 9.76872,-2.22339 20.41667,-4.94087 z M 537,449.44098 C 537,448.64844 536.325,448 535.5,448 c -1.50623,0 -2.05568,2.11099 -0.86052,3.30615 0.93324,0.93324 2.36052,-0.19452 2.36052,-1.86517 z m -119.26764,-1.52551 0.54512,-2.08454 0.73641,1.19155 0.73642,1.19154 2.02456,-0.64257 2.02456,-0.64257 -1.03072,-3.21444 c -0.56689,-1.76794 -1.57287,-4.80599 -2.23551,-6.75121 l -1.20479,-3.53676 0.98305,-1.55846 0.98305,-1.55846 -0.66631,-2.65477 C 420.26173,426.19465 419.46939,425 418.86745,425 H 417.773 l 0.44661,3.04295 0.44661,3.04294 -1.4149,-0.54294 C 416.47313,430.24433 415.43735,430 414.9496,430 c -0.48776,0 -0.64341,-0.63435 -0.34589,-1.40966 l 0.54093,-1.40966 -2.06337,-0.65489 c -5.11093,-1.62214 -5.09497,3.68244 0.0609,20.22421 l 1.01297,3.25 h 1.51607 1.51607 z m 21.65465,-2.73264 c 0.98748,-1.59779 -4.13794,-14.07662 -6.9274,-16.86608 -0.70457,-0.70457 -1.4607,-1.82003 -1.68029,-2.4788 l -0.39926,-1.19777 -1.79934,0.69047 -1.79934,0.69047 0.62615,3.73944 c 0.34439,2.05669 1.15113,6.55194 1.79277,9.98944 l 1.16662,6.25 h 4.25752 c 2.34164,0 4.48479,-0.36773 4.76257,-0.81717 z m 97.9827,-3.43283 c 0.33164,-1.2375 0.60913,-2.8125 0.61664,-3.5 L 538,437 h -2.11663 -2.11663 l 0.60297,2.25 c 0.33164,1.2375 0.60913,2.8125 0.61664,3.5 0.023,2.10819 1.7439,1.38616 2.38336,-1 z m 79.51574,-3 c 3.01901,-7.48428 5.0987,-16.0946 4.46901,-18.50254 l -0.53937,-2.06255 -2.15754,-0.5788 c -1.18665,-0.31834 -3.17005,-0.58495 -4.40755,-0.59246 L 612,417 v 1.55902 1.55901 L 611,419.5 c -0.55,-0.33992 -1,-1.71648 -1,-3.05902 V 414 h -2 c -1.1,0 -2,0.48214 -2,1.07143 v 1.07143 l -1.57143,-1.57143 c -1.93496,-1.93496 -2.52989,-1.99905 -1.8388,-0.19808 l 0.527,1.37334 -3.99368,-0.10472 c -4.73515,-0.12416 -4.68139,-0.16988 -5.41868,4.60803 l -0.57867,3.75 h 0.86758 c 0.47717,0 1.06259,-1.0125 1.30095,-2.25 l 0.43337,-2.25 0.13618,2.6933 0.13618,2.69329 2.22251,1.55671 c 1.22237,0.85618 2.92372,1.5567 3.78076,1.5567 h 1.55825 l 1.18829,-3.14813 1.18829,-3.14813 1.4042,1.16538 c 0.77231,0.64096 2.02374,0.92839 2.78095,0.63874 l 1.37675,-0.52666 0.14073,8.00596 c 0.24702,14.05313 1.78757,16.33333 5.24472,7.76284 z m 162.47032,3.76525 0.56975,-1.48474 -1.80109,-0.96391 C 776.28754,439.08352 772,439.6786 772,440.91663 772,442.33422 774.48137,444 776.59301,444 h 2.19301 z M 519,437 c 0,-0.55 -0.675,-1 -1.5,-1 -0.825,0 -1.5,0.45 -1.5,1 0,0.55 0.675,1 1.5,1 0.825,0 1.5,-0.45 1.5,-1 z m -20.25,-0.73504 c -2.6125,-0.206 -6.8875,-0.206 -9.5,0 -2.6125,0.206 -0.475,0.37454 4.75,0.37454 5.225,0 7.3625,-0.16854 4.75,-0.37454 z M 563.90739,431.25 c 0.54147,-2.0625 1.28533,-6.5041 1.65303,-9.87023 l 0.66855,-6.12023 -0.92365,-0.57084 c -0.508,-0.31396 -5.4392,-0.88185 -10.95821,-1.26196 l -10.03456,-0.69112 -0.65628,6.27888 C 543.29532,422.46789 543,426.99499 543,429.07473 v 3.78136 l 5.75,0.62686 c 3.1625,0.34477 6.65,0.76587 7.75,0.93577 1.1,0.1699 2.99516,0.3702 4.21146,0.4451 L 562.92291,435 Z m -24.55537,-2.5 c 0.34683,-2.8875 0.63451,-7.85135 0.63929,-11.03078 l 0.009,-5.78078 -12.25,0.28078 -12.25,0.28078 -0.29125,8.90875 c -0.34631,10.59302 -0.47018,10.42663 8.341,11.20371 3.82264,0.33712 7.13775,0.78724 7.36692,1.00025 0.22916,0.21301 2.07898,0.38729 4.11071,0.38729 h 3.69404 z m -147.64629,-7 c -0.23835,-1.2375 -0.43337,-0.225 -0.43337,2.25 0,2.475 0.19502,3.4875 0.43337,2.25 0.23836,-1.2375 0.23836,-3.2625 0,-4.5 z m 67.51371,3.82712 3.28056,-1.45355 -6,0.40358 -6,0.40359 4.88665,-0.90202 c 2.68766,-0.49611 5.38766,-1.42012 6,-2.05336 l 1.11335,-1.15133 -5.76342,0.33798 -5.76341,0.33799 -0.5546,-1.75198 -0.5546,-1.75198 -2.68199,0.64031 C 443.10431,419.60988 441,420.9201 441,422.48549 c 0,0.77832 -0.7875,1.87381 -1.75,2.43441 l -1.75,1.01928 4,0.13009 4,0.13009 -2.5,0.88619 -2.5,0.88618 7.71944,-0.47053 c 4.24569,-0.25879 9.19569,-1.12463 11,-1.92408 z M 628.5,426 l 0.61803,-1 h -1.47723 c -0.81247,0 -2.30153,-0.30925 -3.30901,-0.68723 l -1.83179,-0.68723 1.37244,1.68723 c 1.53358,1.88532 3.68925,2.20545 4.62756,0.68723 z m -212,-5.78678 3,-1.05533 -3.75,-0.0789 L 412,419 v -1.33948 c 0,-0.73672 1.16035,-1.86818 2.57855,-2.51436 l 2.57855,-1.17486 -0.40688,-1.23565 c -0.22378,-0.67961 -1.38413,-1.37945 -2.57855,-1.5552 L 412,410.8609 v -1.87143 c 0,-1.02929 -0.401,-2.11927 -0.89112,-2.42218 l -0.89112,-0.55074 -0.4175,7.74173 -0.41751,7.74172 1.02509,0.6928 c 0.56379,0.38104 1.49018,0.32896 2.05862,-0.11573 0.56845,-0.44469 2.38354,-1.28342 4.03354,-1.86385 z m 52.25,1.09745 c -0.9625,-0.25152 -2.5375,-0.25152 -3.5,0 -0.9625,0.25153 -0.175,0.45733 1.75,0.45733 1.925,0 2.7125,-0.2058 1.75,-0.45733 z M 461,417.5 c 0,-1.89289 -1.08547,-1.90259 -3.55887,-0.0318 l -1.94113,1.46819 2.75,0.0318 L 461,419 Z M 390,411 v -7 h -1 -1 v 7 7 h 1 1 z m 246.39301,5.41821 C 637.42139,413.73831 637.07004,412 635.5,412 H 634 v 3 c 0,3.2057 1.39079,4.02995 2.39301,1.41821 z m -194.04375,-9.00343 -0.43405,-6.58522 0.93761,0.57948 c 0.51569,0.31871 1.20461,-0.11631 1.53094,-0.96672 l 0.59333,-1.5462 -1.10035,0.68006 -1.10035,0.68005 -0.87288,-1.37811 c -0.48009,-0.75797 -0.87978,-2.36406 -0.8882,-3.5691 -0.0142,-2.02996 -1.63753,-4.02013 -2.54167,-3.116 -0.74631,0.74632 1.39356,17.69032 2.49374,19.74603 1.68406,3.1467 1.85139,2.59885 1.38188,-4.52427 z M 590.50334,407.75 c 0.35598,-2.8875 0.72586,-7.45789 0.82195,-10.15642 l 0.17471,-4.90643 -2.66014,-0.73306 c -1.46308,-0.40318 -5.85058,-1.05346 -9.75,-1.44507 l -7.08986,-0.712 0.10335,8.85149 0.10335,8.85149 1.01092,-3.81314 1.01092,-3.81314 1.35371,0.51947 c 0.74453,0.2857 1.61967,0.0891 1.94474,-0.43686 0.95731,-1.54896 2.2924,-1.10075 2.95681,0.99264 l 0.61858,1.94897 1.44881,-0.55596 L 584,401.78602 v 2.66601 2.666 l 1,-0.61803 1,-0.61803 v 2.1983 2.19831 l -5.25,-0.7294 c -8.24148,-1.14501 -9.02,-1.12853 -9.48212,0.20082 l -0.43455,1.25 3.83334,0.0576 c 2.10833,0.0317 5.63333,0.42995 7.83333,0.885 2.2,0.45505 4.75512,0.87912 5.67804,0.94237 L 589.85609,413 Z M 610,410.99153 v -2.00848 l -2,1.24902 c -1.1,0.68696 -2,1.59078 -2,2.00848 0,0.4177 0.9,0.75945 2,0.75945 h 2 z m -132.19286,-0.92592 c 4.01893,-0.46561 7.53421,-1.07363 7.81174,-1.35115 0.49231,-0.49231 -1.4766,-20.90551 -2.07402,-21.50293 -0.16562,-0.16563 -5.08097,0.26658 -10.923,0.96046 L 462,389.43358 v 4.4513 c 0,2.44821 0.49619,7.30065 1.10265,10.78321 l 1.10266,6.33191 3.14734,-0.0439 c 1.73104,-0.0242 6.43556,-0.42487 10.45449,-0.89048 z M 567.00711,406.75 c 0.004,-2.3375 0.28826,-7.22628 0.6319,-10.86396 l 0.62479,-6.61397 -3.3819,-0.58937 c -1.86004,-0.32416 -7.04203,-0.88892 -11.51552,-1.25501 l -8.13361,-0.66564 -0.73041,10.20495 -0.73041,10.20495 0.89444,0.89444 c 0.92001,0.92001 11.92629,2.58254 18.58361,2.80711 L 567,411 Z M 631,409 c 0,-1.1 -0.45,-2 -1,-2 -0.55,0 -1,0.9 -1,2 0,1.1 0.45,2 1,2 0.55,0 1,-0.9 1,-2 z m -173.7692,-8.1692 -0.89747,-0.89747 -0.11353,1.78334 c -0.0624,0.98083 0.18795,3.35833 0.55643,5.28333 l 0.66996,3.5 0.34104,-4.38586 c 0.18757,-2.41223 -0.0628,-4.78973 -0.55643,-5.28334 z m 52.5192,7.53891 2.25,-0.60297 V 396.88337 386 l -10.75,0.0153 c -5.9125,0.008 -11.3706,0.40839 -12.12912,0.88882 l -1.37911,0.8735 0.65112,5.86118 c 0.35811,3.22366 0.90844,7.99869 1.22295,10.61119 l 0.57184,4.75 8.65616,-0.0136 c 4.76089,-0.008 9.66866,-0.285 10.90616,-0.61664 z M 540,397.5 V 386 h -12 -12 v 10.93963 10.93964 l 3.75,0.39226 c 2.0625,0.21575 7.4625,0.46791 12,0.56037 L 540,409 Z m 97.98899,2.75 C 637.97621,391.24596 637.10798,385 635.86916,385 H 635 v 10.83333 c 0,5.95834 0.3,11.13334 0.66667,11.5 1.76615,1.76616 2.33244,0.0389 2.32232,-7.08333 z m -6.05928,-1.5 c -0.0386,-3.9875 -0.43784,-8.15 -0.88708,-9.25 l -0.8168,-2 -0.36292,8.83786 c -0.1996,4.86083 -0.17541,9.02333 0.0538,9.25 1.49385,1.47761 2.07454,-0.49486 2.01304,-6.83786 z M 276.5,404 l 0.61803,-1 -3.30901,0.0703 -3.30902,0.0703 2,0.85943 c 2.71291,1.16578 3.27951,1.16578 4,0 z M 455,400.66667 c 0,-0.73334 -0.675,-1.33334 -1.5,-1.33334 -0.825,0 -1.5,0.6 -1.5,1.33334 0,0.73333 0.675,1.33333 1.5,1.33333 0.825,0 1.5,-0.6 1.5,-1.33333 z m -10.56621,-3.7738 -0.68425,-1.10714 2.25008,0.71415 2.25007,0.71414 0.95129,-1.35701 0.95128,-1.35701 0.44828,1.07322 0.44828,1.07323 2.97559,-0.43672 L 457,395.773 v -2.39523 -2.39524 l -5.75,0.59224 c -3.1625,0.32573 -6.3125,0.76554 -7,0.97735 l -1.25,0.38511 v 2.53139 c 0,1.39226 0.47656,2.53138 1.05902,2.53138 h 1.05901 z M 611.35815,390.25 c 0.34091,-2.0625 0.62479,-5.90162 0.63084,-8.53138 l 0.011,-4.78139 -1.25,-0.35549 c -0.6875,-0.19553 -3.66418,-1.0814 -6.61483,-1.96862 C 601.18451,373.7259 598.37201,373 597.88517,373 H 597 v 8.46146 8.46145 l 4.25,1.0606 c 2.3375,0.58332 4.925,1.4742 5.75,1.97973 0.825,0.50553 2.00362,0.94561 2.61916,0.97795 L 610.73832,394 Z m -10.0636,-7.74371 -1.20546,-1.3265 1.42343,-0.54622 c 1.67952,-0.64449 3.09736,1.17151 1.85035,2.36996 L 602.5,383.83279 Z m 20.12366,6.88672 C 623.18801,388.71388 623.59621,386 621.92857,386 620.80415,386 618,388.44726 618,389.42857 c 0,0.74224 1.43006,0.72737 3.41821,-0.0356 z M 592,379.65629 v -9.34371 l -8.75,-1.75446 c -4.8125,-0.96496 -9.60762,-1.98787 -10.65581,-2.27314 l -1.90582,-0.51866 0.69013,9.81782 c 0.37957,5.3998 0.80228,9.92998 0.93937,10.06706 0.32692,0.32692 15.66988,3.09896 17.93213,3.23983 L 592,389 Z M 483.78621,373.71684 484.07242,364 l -1.78621,0.004 c -2.73282,0.006 -19.43838,2.81502 -19.98383,3.36047 -0.73837,0.73838 -1.64811,16.29238 -1.04487,17.8644 l 0.53242,1.38746 10.85503,-1.59123 L 483.5,383.43369 Z M 457,380.5 V 375 h -5.94098 -5.94099 L 444.5,376 c -0.33992,0.55 -1.91218,1 -3.49392,1 C 436.98215,377 433,378.68188 433,380.38141 v 1.43091 l 5.25,0.74346 c 2.8875,0.40889 7.86047,0.69917 11.05104,0.64505 l 5.80104,-0.0984 0.55595,1.44879 C 456.65323,387.14468 457,386.09783 457,380.5 Z m 174.45729,3.4309 C 631.14086,383.41891 630.21578,383 629.40156,383 h -1.48041 l 1.28942,1.39504 c 1.3722,1.48458 3.21573,1.10374 2.24672,-0.46414 z M 567.99131,380.25 c -0.005,-2.6125 -0.28699,-7.06631 -0.62714,-9.89735 l -0.61844,-5.14734 -7.41371,-1.10266 C 555.25448,363.49619 550.13669,363 547.95915,363 H 544 v 9.53138 9.53139 l 1.25,0.4441 c 1.02578,0.36444 13.94629,1.8155 21,2.35843 L 568,385 Z M 510.79853,381.62452 512,380.88197 v -8.97237 -8.97237 l -1.25,-0.47369 c -0.6875,-0.26052 -5.975,-0.1339 -11.75,0.28139 l -10.5,0.75507 -0.28778,9.88001 -0.28778,9.88001 10.83631,-0.44648 c 5.95997,-0.24556 11.37697,-0.78062 12.03778,-1.18902 z M 540,373.10699 v -9.89301 l -1.58179,-0.60699 C 537.54823,362.27314 532.17479,362 526.47723,362 h -10.3592 l -0.59746,0.96671 c -0.3286,0.53169 -0.29184,5.0151 0.0817,9.96312 l 0.67914,8.99641 8.60931,0.33124 c 4.73511,0.18219 10.0718,0.42379 11.8593,0.53688 L 540,383 Z M 634.5164,374 c -2.81707,-10.37165 -3.45575,-12 -4.70672,-12 -0.53699,0 -0.75647,0.5625 -0.48772,1.25 0.26874,0.6875 1.28687,4.625 2.2625,8.75 1.48798,6.29126 4.01684,11.7438 4.98862,10.75613 0.13861,-0.14087 -0.7869,-4.08113 -2.05668,-8.75613 z m -4.48151,-2.84349 -1.84867,-8.29326 -1.7481,-1.93162 C 625.47667,359.86923 623.84821,359 622.81933,359 h -1.87069 l 1.47969,2.86141 c 0.81384,1.57378 2.27111,5.96128 3.2384,9.75 l 1.7587,6.88859 0.66897,-3 c 0.36793,-1.65 0.72221,-2.46679 0.78729,-1.8151 0.19671,1.97007 2.14512,6.62163 2.58807,6.17868 0.22759,-0.22759 -0.4181,-4.14577 -1.43487,-8.70707 z M 620.9496,372.25 c -0.0277,-0.9625 -1.05766,-4.8972 -2.28876,-8.74377 l -2.23836,-6.99377 -1.63144,-0.31419 -1.63144,-0.31418 1.32308,5.30795 c 0.72769,2.91938 1.61217,6.99546 1.96551,9.05796 l 0.64244,3.75 H 619.04531 621 Z m -9.41779,-4.5 c -0.3542,-2.3375 -1.10095,-6.6139 -1.65944,-9.5031 l -1.01545,-5.25311 -1.67846,-0.85779 c -0.92315,-0.47178 -3.42172,-1.12614 -5.55236,-1.45413 l -3.87391,-0.59634 0.6129,3.70723 c 0.33709,2.03898 0.61785,5.74772 0.6239,8.24163 l 0.011,4.53439 3.09264,1.82687 c 2.81399,1.66227 7.11789,3.30017 9.24526,3.5184 L 612.1758,372 Z M 420.63837,367.5 420.06277,366 H 423.53138 427 v -1.06739 -1.06739 l -2.12523,0.67453 -2.12523,0.67452 0.68425,-1.10714 C 423.81012,363.49821 424.97564,363 426.02383,363 h 1.9058 L 429,361 l 1.07037,-2 h -5.58485 -5.58484 l -2.95034,1.52568 C 414.32765,361.3648 413,362.74513 413,363.59307 v 1.54171 l 2.12523,-0.67453 2.12523,-0.67452 -0.68425,1.10714 C 416.18988,365.50179 415.23352,366 414.44098,366 413.64844,366 413,366.4187 413,366.93045 c 0,0.89668 2.47185,1.64845 6.35699,1.93337 L 421.21398,369 Z m -17.00872,-7.62441 1.87035,-0.73502 -1.88976,-0.0703 c -2.27739,-0.0847 -4.56522,2.6775 -4.49722,5.42971 l 0.0494,2 1.29843,-2.9447 c 0.71414,-1.61958 2.14009,-3.27545 3.16878,-3.67971 z M 590.54558,359.75 c -0.35794,-3.4375 -0.88241,-7.4626 -1.16549,-8.94466 l -0.51469,-2.69466 -3.22307,-1.06371 c -4.50033,-1.48524 -16.98205,-4.04058 -17.45012,-3.57251 -0.21282,0.21281 0.17636,4.5089 0.86483,9.54687 l 1.25177,9.15994 1.38625,0.53196 c 2.73131,1.0481 12.8681,3.02906 16.15313,3.15669 L 591.19637,366 Z m -148.78392,3.56292 c -0.95609,-0.25029 -2.75609,-0.25937 -4,-0.0202 l -2.26166,0.4349 4,0.0202 c 2.2,0.0111 3.21775,-0.18461 2.26166,-0.4349 z m 32.09758,-1.77343 c 5.14758,-0.78355 9.6155,-1.6809 9.92872,-1.99411 0.94395,-0.94396 1.95006,-16.97799 1.12459,-17.92238 l -0.76656,-0.87701 -6.64756,1.25431 -6.64755,1.2543 -3.01153,2.53403 c -3.50642,2.95046 -4.33033,4.80679 -5.30893,11.96137 l -0.7181,5.25 1.34384,-0.0179 c 0.73911,-0.01 5.5555,-0.65902 10.70308,-1.44257 z M 565.98019,360.75 c -0.0334,-2.10665 -1.99209,-15.14679 -2.53905,-16.90376 l -0.51483,-1.65376 -6.29507,-1.09624 C 553.16896,340.49331 548.45739,340 546.16111,340 h -4.17507 l 0.57035,7.25 c 0.3137,3.9875 0.76641,8.22664 1.00603,9.4203 l 0.43568,2.17031 6.75095,0.6857 c 3.71302,0.37713 8.32595,1.04279 10.25095,1.47924 4.97302,1.12752 5.00209,1.12603 4.98019,-0.25555 z M 399,357.37756 C 399,356.6199 398.59814,356 398.10699,356 397.18638,356 396,358.36727 396,360.20423 v 1.04066 L 397.5,360 c 0.825,-0.68469 1.5,-1.86479 1.5,-2.62244 z m 110.75,1.0695 2.25,-0.48516 v -9.62823 -9.62823 l -10.74756,0.69484 c -5.91117,0.38217 -11.05062,1.01095 -11.42102,1.39728 -0.53454,0.55755 -1.33452,16.18138 -0.93201,18.20244 0.1197,0.60101 17.6557,0.13597 20.85059,-0.55294 z m 117.47243,-5.78542 c -1.65673,-3.54037 -6.31978,-11.10006 -10.36234,-16.79933 L 609.51,325.5 599.505,315.39329 589.5,305.28659 l -7,-4.15224 c -3.85,-2.28373 -8.10263,-4.93571 -9.4503,-5.89329 l -2.4503,-1.74106 0.72319,1.89144 0.72319,1.89145 -1.49549,-1.24115 c -1.76079,-1.46133 -15.52698,-8.58218 -18.28119,-9.45633 -1.04636,-0.3321 2.90336,4.31506 8.77716,10.32703 5.8738,6.01198 10.94718,11.52862 11.27418,12.25921 0.327,0.73059 2.52617,4.43963 4.88705,8.2423 l 4.29251,6.91394 6.5,1.80092 c 3.575,0.99051 7.05082,1.81673 7.72405,1.83606 l 1.22406,0.0351 -3.06703,-5.25 c -1.68686,-2.8875 -4.26268,-6.58281 -5.72405,-8.21181 -1.46137,-1.62899 -1.81054,-2.31244 -0.77595,-1.51876 1.0346,0.79367 4.54501,4.94252 7.80092,9.21966 l 5.91984,7.77662 3.5712,1.49215 c 1.96417,0.82068 4.30375,1.50215 5.19908,1.51438 0.89534,0.0122 2.75288,0.90222 4.12788,1.97776 l 2.5,1.95553 -2.19098,0.0222 c -1.20504,0.0122 -2.47332,-0.43458 -2.81838,-0.99291 C 610.82777,334.91231 604.44911,332 602.76287,332 c -0.54609,0 -0.1585,1.2375 0.8613,2.75 1.01981,1.5125 3.47341,5.9 5.45244,9.75 3.23474,6.29285 5.93559,8.84961 5.10651,4.83407 l -0.31688,-1.53477 1.06688,0.65936 C 615.5199,348.82132 616,349.61854 616,350.23028 616,351.64907 619.00507,355 620.27743,355 h 0.96746 l -1.0354,-1.25 c -1.94337,-2.34616 -8.19646,-14.75 -7.43585,-14.75 0.69419,0 3.07293,3.24173 10.40446,14.1791 2.61015,3.8939 5.94575,7.03038 6.68767,6.28847 0.2029,-0.20291 -0.9866,-3.26557 -2.64334,-6.80593 z m -89.00533,-2.69415 c -0.15559,-4.65712 -0.47897,-9.02999 -0.71861,-9.71749 L 537.06277,339 H 526.53138 516 l -0.15,8 c -0.0825,4.4 -0.195,8.5625 -0.25,9.25 l -0.1,1.25 10,0.56517 c 5.5,0.31084 10.675,0.52122 11.5,0.46749 l 1.5,-0.0977 z M 427,355.93908 l 1.5,-0.87826 -3.55887,-0.0304 -3.55887,-0.0304 -1.94113,1.562 -1.94113,1.56199 4,-0.65333 c 2.2,-0.35933 4.675,-1.04854 5.5,-1.53158 z m -21.28578,-3.19324 c 0.0262,-0.68521 0.39786,-2.14584 0.826,-3.24584 1.26403,-3.24761 -0.12041,-1.34713 -2.54964,3.5 l -2.25526,4.5 1.96567,-1.75416 c 1.08112,-0.96478 1.98708,-2.31478 2.01323,-3 z m -0.0466,-11.41152 c -0.48497,-0.48497 -6.70372,12.12299 -6.61847,13.41835 0.0271,0.41103 1.63132,-2.33591 3.56503,-6.10431 1.93372,-3.7684 3.30776,-7.05972 3.05344,-7.31404 z m 199.7922,5.41568 c -0.37123,-1.2375 -2.08905,-5.175 -3.81739,-8.75 l -3.14243,-6.5 -7.36385,-2.80282 c -4.05011,-1.54155 -7.64107,-2.52559 -7.9799,-2.18676 -0.84056,0.84055 6.03225,13.73281 7.59443,14.24591 l 1.25068,0.41079 -0.55819,-1.45462 -0.55819,-1.45462 1.62894,-1.62894 c 0.89591,-0.89592 2.02564,-1.62894 2.5105,-1.62894 0.93499,0 2.96062,6.30681 2.97,9.24713 l 0.006,1.74713 3.25,1.4213 c 1.7875,0.78171 3.61782,1.458 4.06739,1.50287 L 606.13478,349 Z m -178.8429,-0.3059 c -0.32838,-0.85574 0.0422,-3.08592 0.82358,-4.95595 l 1.42064,-3.40006 1.81943,0.36987 c 1.00069,0.20342 2.53483,0.65408 3.40922,1.00146 l 1.58978,0.6316 1.05563,-1.29551 c 0.5806,-0.71253 2.24216,-3.43301 3.69235,-6.04551 l 2.63672,-4.75 h -1.35064 c -0.74284,0 -3.62792,0.67628 -6.41127,1.50285 l -5.06064,1.50285 -2.27623,6.24715 c -1.25192,3.43593 -2.65631,6.67465 -3.12086,7.19715 -1.38655,1.55952 -0.9591,3.55 0.76236,3.55 h 1.60699 z m 26.77705,-4.25229 7.89398,-1.69181 2.33223,-8 c 1.28273,-4.4 2.34295,-8.39501 2.35603,-8.87781 l 0.0238,-0.87781 -4.25,0.64031 c -2.3375,0.35217 -6.44952,1.18565 -9.13782,1.85218 l -4.88781,1.21187 -2.82868,4.52563 c -1.55577,2.4891 -3.12072,5.87563 -3.47766,7.52563 -0.35694,1.65 -1.10211,3.5625 -1.65595,4.25 l -1.00697,1.25 3.37245,-0.0582 c 1.85484,-0.032 6.92473,-0.8195 11.26641,-1.75 z M 586,342.42343 c 0,-0.31711 -1.62696,-4.36376 -3.61547,-8.99255 l -3.61547,-8.41598 -3.63453,-0.95875 c -1.99899,-0.52731 -5.94427,-1.25664 -8.76728,-1.62073 l -5.13276,-0.66197 2.40452,8.3017 c 1.32248,4.56594 2.65392,8.55441 2.95875,8.86328 1.50941,1.52939 19.40224,4.74328 19.40224,3.485 z m -107.03994,-3.77565 7.46006,-1.19995 1.30041,-8.38012 c 0.71522,-4.60906 1.11779,-8.56272 0.8946,-8.78592 -0.66742,-0.66741 -17.04406,1.79117 -17.9742,2.69842 C 469.73757,323.86134 466,336.5441 466,338.72836 V 340 l 2.75,-0.0761 c 1.5125,-0.0419 6.10703,-0.61611 10.21006,-1.27608 z M 562,337.60534 c 0,-1.85715 -4.00875,-14.92091 -4.84355,-15.7842 -0.75059,-0.77622 -17.16583,-3.1451 -17.7495,-2.56143 -0.21104,0.21105 0.15062,4.04981 0.8037,8.53058 l 1.18741,8.14686 4.55097,0.65444 c 2.50303,0.35995 6.35097,0.99979 8.55097,1.42186 2.2,0.42208 4.7875,0.81672 5.75,0.87698 L 562,339 Z m -51.21083,-2.1731 1.28917,-0.39953 -0.28917,-8.76636 L 511.5,317.5 l -4,0.26149 c -2.2,0.14382 -6.30062,0.50597 -9.1125,0.80478 l -5.11249,0.54328 -1.13751,6.88785 C 491.51188,329.78572 491,333.80617 491,334.93172 v 2.04647 l 9.25,-0.57321 c 5.0875,-0.31527 9.83013,-0.753 10.53917,-0.97274 z m 26.1144,-2.68224 c -0.053,-1.7875 -0.61553,-5.725 -1.25,-8.75 l -1.15357,-5.5 -8,-0.74176 c -4.4,-0.40797 -8.5625,-0.53459 -9.25,-0.28138 l -1.25,0.46037 v 8.48758 8.48757 l 7.25,0.34511 c 3.9875,0.18982 8.7125,0.43453 10.5,0.54381 L 537,336 Z m -92.25718,-7.99872 c 1.76837,-1.81316 8.48067,-13.95755 7.98719,-14.45103 -0.62822,-0.62822 -6.84165,2.31972 -9.24297,4.38529 C 441.42912,316.37278 433,327.42594 433,328.31081 c 0,0.83441 10.48699,-2.37077 11.64639,-3.55953 z M 576,321.46676 c 0,-1.18143 -4.91081,-10.12353 -6.645,-12.0999 l -1.855,-2.11406 -6.33975,-1.70332 c -3.48686,-0.93683 -6.56799,-1.47507 -6.84697,-1.19609 -0.38094,0.38094 2.92259,8.05322 6.18856,14.37259 0.42479,0.82194 15.49816,3.48759 15.49816,2.74078 z m -90.06455,-4.36433 4.43545,-0.60867 1.29526,-4.99688 c 0.71239,-2.74829 1.30394,-5.94448 1.31455,-7.10265 l 0.0193,-2.10577 -7.63934,1.32845 c -4.20164,0.73064 -7.78657,1.47567 -7.96651,1.65561 C 476.72196,305.9447 472,317.09438 472,318.00938 v 0.95236 l 4.75,-0.62532 c 2.6125,-0.34392 6.74595,-0.89922 9.18545,-1.23399 z M 554.53907,315.25 c -1.06268,-4.31187 -4.81423,-11.32689 -6.55598,-12.25905 -0.86958,-0.46538 -4.31849,-1.15586 -7.66425,-1.53439 l -6.08319,-0.68823 1.65881,7.05913 c 0.91234,3.88253 1.93073,7.33106 2.26307,7.6634 0.53311,0.53311 10.12058,2.03569 15.20088,2.38234 L 555.21682,318 Z m -42.76886,-0.73642 c 0.14862,-0.12137 0.37362,-3.32408 0.5,-7.11713 L 512.5,300.5 h -6.7866 -6.7866 l -0.96367,1.5 c -0.9072,1.41212 -1.93526,4.83474 -3.39566,11.30483 l -0.6331,2.80483 8.78282,-0.6877 c 4.83054,-0.37824 8.90441,-0.78701 9.05302,-0.90838 z m 20.65,-6.52521 c -1.85564,-7.95438 -1.46837,-7.61574 -9.67021,-8.45602 L 516,298.84081 v 7.56054 7.56055 l 2.25,0.51165 c 3.27345,0.74438 14.12761,1.11465 14.96592,0.51053 0.39376,-0.28376 0.0357,-3.43183 -0.79571,-6.99571 z M 565,304.43018 c 0,-1.35545 -6.17945,-9.38055 -9.40158,-12.20962 -4.77194,-4.18982 -11.36382,-7.8773 -15.59842,-8.72571 l -3.5,-0.70124 4.11266,4.3532 c 2.26196,2.39425 5.91576,6.84201 8.11955,9.88391 l 4.00689,5.53071 4.38045,1.06995 c 5.3169,1.29869 7.88045,1.55854 7.88045,0.7988 z m -19.52287,-8.29486 c -1.45623,-2.67558 -4.56275,-6.95058 -6.90337,-9.5 L 534.31808,282 h -3.65904 c -3.508,0 -4.50372,0.82199 -2.91736,2.40834 0.40792,0.40792 1.92668,3.73167 3.37502,7.38611 l 2.63334,6.64443 5.37498,1.1425 c 2.95624,0.62837 6.19057,1.20462 7.18739,1.28056 L 548.12482,301 Z M 220.5,290.60899 c 0,-1.04006 -0.77906,-2.38243 -1.73124,-2.98305 l -1.73123,-1.09204 -1.65551,1.65551 -1.65551,1.65551 0.63106,1.64451 0.63106,1.64451 2.75568,-0.31697 L 220.5,292.5 Z M 374.5,221 v -2.5 l -2.25447,-0.32014 -2.25447,-0.32013 -0.60252,1.57013 c -0.33138,0.86358 -0.33138,2.2767 0,3.14028 l 0.60252,1.57013 2.25447,-0.32013 L 374.5,223.5 Z"
       id="path1" />
  </g>
</svg>
